<svg id="kity_svg_6" xmlns="http://www.w3.org/2000/svg" xmlns:xlink="http://www.w3.org/1999/xlink" version="1.1" width="1214" height="230" style="background: rgb(251, 251, 251); visibility: visible;" viewBox="0 0 1214 230"><defs id="kity_defs_7"><linearGradient id="kity_linearGradient_17" x1="0" y1="0" x2="0" y2="1"><stop id="kity_stop_18" offset="0" stop-color="rgb(255, 255, 255)"></stop><stop id="kity_stop_19" offset="1" stop-color="rgb(204, 204, 204)"></stop></linearGradient><marker id="kity_marker_2" orient="auto" refX="6" refY="0" viewBox="-7 -7 14 14" markerWidth="7" markerHeight="7" markerUnits="userSpaceOnUse"><path id="kity_path_3" fill="rgb(115, 191, 118)" stroke="none" d="M6,0A6,6,0,1,1,-6,0A6,6,0,1,1,6,0"></path></marker></defs><g id="kity_g_8"><g id="minder1" text-rendering="optimize-speed"><g id="minder_connect_group1"><path id="kity_path_96" fill="none" stroke="rgb(115, 191, 118)" stroke-width="1" d="M320.50000574439764,55.50000274926424C328.50000574439764,55.50000274926424,328.50000574439764,29.50000274926424,336.50000574439764,29.50000274926424"></path><path id="kity_path_104" fill="none" stroke="rgb(115, 191, 118)" stroke-width="1" d="M81.00000574439764,121.50000274926424A76.5,66,0,0,1,157.50000574439764,55.50000274926424"></path><path id="kity_path_114" fill="none" stroke="rgb(115, 191, 118)" stroke-width="1" d="M372.50000574439764,29.50000274926424C380.50000574439764,29.50000274926424,380.50000574439764,29.50000274926424,388.50000574439764,29.50000274926424"></path><path id="kity_path_116" fill="none" stroke="rgb(115, 191, 118)" stroke-width="1" d="M320.50000574439764,55.50000274926424C328.50000574439764,55.50000274926424,328.50000574439764,55.50000274926424,336.50000574439764,55.50000274926424"></path><path id="kity_path_118" fill="none" stroke="rgb(115, 191, 118)" stroke-width="1" d="M320.50000574439764,55.50000274926424C328.50000574439764,55.50000274926424,328.50000574439764,81.50000274926424,336.50000574439764,81.50000274926424"></path><path id="kity_path_119" fill="none" stroke="rgb(115, 191, 118)" stroke-width="1" d="M371.50000574439764,55.50000274926424C379.50000574439764,55.50000274926424,379.50000574439764,55.50000274926424,387.50000574439764,55.50000274926424"></path><path id="kity_path_120" fill="none" stroke="rgb(115, 191, 118)" stroke-width="1" d="M372.50000574439764,81.50000274926424C380.50000574439764,81.50000274926424,380.50000574439764,81.50000274926424,388.50000574439764,81.50000274926424"></path><path id="kity_path_122" fill="none" stroke="rgb(115, 191, 118)" stroke-width="1" d="M81.00000574439764,121.50000274926424A76.5,7,0,0,0,157.50000574439764,128.50000274926424"></path><path id="kity_path_130" fill="none" stroke="rgb(115, 191, 118)" stroke-width="1" d="M81.00000574439764,121.50000274926424A76.5,67,0,0,0,157.50000574439764,188.50000274926424"></path><path id="kity_path_146" fill="none" stroke="rgb(115, 191, 118)" stroke-width="1" d="M320.50000574439764,128.50000274926424C328.50000574439764,128.50000274926424,328.50000574439764,115.50000274926424,336.50000574439764,115.50000274926424"></path><path id="kity_path_154" fill="none" stroke="rgb(115, 191, 118)" stroke-width="1" d="M396.50000574439764,115.50000274926424C404.50000574439764,115.50000274926424,404.50000574439764,115.50000274926424,412.50000574439764,115.50000274926424"></path><path id="kity_path_162" fill="none" stroke="rgb(115, 191, 118)" stroke-width="1" d="M320.50000574439764,128.50000274926424C328.50000574439764,128.50000274926424,328.50000574439764,141.50000274926424,336.50000574439764,141.50000274926424"></path><path id="kity_path_170" fill="none" stroke="rgb(115, 191, 118)" stroke-width="1" d="M396.50000574439764,141.50000274926424C404.50000574439764,141.50000274926424,404.50000574439764,141.50000274926424,412.50000574439764,141.50000274926424"></path><path id="kity_path_186" fill="none" stroke="rgb(115, 191, 118)" stroke-width="1" d="M320.50000574439764,188.50000274926424C328.50000574439764,188.50000274926424,328.50000574439764,201.50000274926424,336.50000574439764,201.50000274926424"></path><path id="kity_path_218" fill="none" stroke="rgb(115, 191, 118)" stroke-width="1" d="M320.50000574439764,188.50000274926424C328.50000574439764,188.50000274926424,328.50000574439764,175.50000274926424,336.50000574439764,175.50000274926424"></path><path id="kity_path_225" fill="none" stroke="rgb(115, 191, 118)" stroke-width="1" d="M395.50000574439764,201.50000274926424C403.50000574439764,201.50000274926424,403.50000574439764,201.50000274926424,411.50000574439764,201.50000274926424"></path><path id="kity_path_229" fill="none" stroke="rgb(115, 191, 118)" stroke-width="1" d="M394.50000574439764,175.50000274926424C402.50000574439764,175.50000274926424,402.50000574439764,175.50000274926424,410.50000574439764,175.50000274926424"></path></g><g id="minder_node1"><path id="node_outline1" fill="rgb(115, 191, 118)" stroke="rgb(115, 191, 118)" d="M25.50000574439764,107.50000274926424h111a5,5,0,0,1,5,5v18a5,5,0,0,1,-5,5h-111a5,5,0,0,1,-5,-5v-18a5,5,0,0,1,5,-5z" stroke-width="3"></path><g id="node_text1" fill="white"><text id="kity_text_22" text-rendering="inherit" font-size="16" dy=".8em" y="111.10000271350145" x="32.50000574439764">计网组成部分</text></g></g><g id="kity_g_14" display="none"><path id="kity_path_15" fill="rgba(0, 153, 5, 0.5)" stroke="none" d="M336.50000574439764,247.50000274926424h58v4h-58z"></path><path id="kity_path_16" fill="none" stroke="rgb(0, 128, 4)" d="M336.50000574439764,247.50000274926424L394.50000574439764,247.50000274926424" stroke-width="1"></path></g><g id="minder_node10" opacity="1"><g id="node_expander9" style="cursor: pointer;"><path id="kity_path_101" fill="white" stroke="gray" d="M336.5000101849437,29.50000137835741A6,6,0,1,1,324.5000101849437,29.50000137835741A6,6,0,1,1,336.5000101849437,29.50000137835741"></path><path id="kity_path_102" fill="none" stroke="gray" d="M326.0000101849437,29.50000137835741L335.0000101849437,29.50000137835741"></path></g><path id="node_outline10" fill="none" stroke="none" d="M341.50001034885645,20.50000137835741h26a5,5,0,0,1,5,5v8a5,5,0,0,1,-5,5h-26a5,5,0,0,1,-5,-5v-8a5,5,0,0,1,5,-5z" stroke-width="3"></path><g id="node_text10" fill="black"><text id="kity_text_98" text-rendering="inherit" font-size="12" dy=".8em" y="21.70000135153532" x="341.50001034885645">硬件</text></g></g><g id="minder_node11"><g id="node_expander10" style="cursor: pointer;"><path id="kity_path_109" fill="white" stroke="gray" d="M158.50000753253698,55.5000017657876A6,6,0,1,1,146.50000753253698,55.5000017657876A6,6,0,1,1,158.50000753253698,55.5000017657876"></path><path id="kity_path_110" fill="none" stroke="gray" d="M148.00000753253698,55.5000017657876L157.00000753253698,55.5000017657876"></path></g><path id="node_outline11" fill="rgb(238, 246, 238)" stroke="rgb(115, 191, 118)" d="M162.50000793486834,42.5000017657876h155a3,3,0,0,1,3,3v20a3,3,0,0,1,-3,3h-155a3,3,0,0,1,-3,-3v-20a3,3,0,0,1,3,-3z" stroke-width="1"></path><g id="node_text11" fill="black"><text id="kity_text_106" text-rendering="inherit" font-size="14" dy=".8em" y="46.40000173449516" x="179.50000793486834">1）从组成部分上看</text></g></g><g id="minder_node2" opacity="1"><g id="node_expander1" style="cursor: pointer;" display="none"><path id="kity_path_36" fill="white" stroke="gray" d="M388.50001095980406,29.50000137835741A6,6,0,1,1,376.50001095980406,29.50000137835741A6,6,0,1,1,388.50001095980406,29.50000137835741"></path><path id="kity_path_37" fill="none" stroke="gray" d="M378.00001095980406,29.50000137835741L387.00001095980406,29.50000137835741"></path></g><path id="node_outline2" fill="none" stroke="none" d="M393.50001112371683,20.50000137835741h553a5,5,0,0,1,5,5v8a5,5,0,0,1,-5,5h-553a5,5,0,0,1,-5,-5v-8a5,5,0,0,1,5,-5z" stroke-width="3"></path><g id="node_text2" fill="black"><text id="kity_text_33" text-rendering="inherit" font-size="12" dy=".8em" y="21.70000135153532" x="393.50001112371683">主机（端系统）、通信链路（双绞线、光纤）、交换设备（路由器、交换机）和通信设备（网卡）等组成</text></g></g><g id="minder_node3" opacity="1"><g id="node_expander2" style="cursor: pointer;"><path id="kity_path_44" fill="white" stroke="gray" d="M336.5000101849437,55.5000017657876A6,6,0,1,1,324.5000101849437,55.5000017657876A6,6,0,1,1,336.5000101849437,55.5000017657876"></path><path id="kity_path_45" fill="none" stroke="gray" d="M326.0000101849437,55.5000017657876L335.0000101849437,55.5000017657876"></path></g><path id="node_outline3" fill="none" stroke="none" d="M341.50001034885645,46.5000017657876h25a5,5,0,0,1,5,5v8a5,5,0,0,1,-5,5h-25a5,5,0,0,1,-5,-5v-8a5,5,0,0,1,5,-5z" stroke-width="3"></path><g id="node_text3" fill="black"><text id="kity_text_41" text-rendering="inherit" font-size="12" dy=".8em" y="47.70000173896551" x="341.50001034885645">软件</text></g></g><g id="minder_node4" opacity="1"><g id="node_expander3" style="cursor: pointer;"><path id="kity_path_52" fill="white" stroke="gray" d="M336.5000101849437,81.50000215321779A6,6,0,1,1,324.5000101849437,81.50000215321779A6,6,0,1,1,336.5000101849437,81.50000215321779"></path><path id="kity_path_53" fill="none" stroke="gray" d="M326.0000101849437,81.50000215321779L335.0000101849437,81.50000215321779"></path></g><path id="node_outline4" fill="none" stroke="none" d="M341.50001034885645,72.50000215321779h26a5,5,0,0,1,5,5v8a5,5,0,0,1,-5,5h-26a5,5,0,0,1,-5,-5v-8a5,5,0,0,1,5,-5z" stroke-width="3"></path><g id="node_text4" fill="black"><text id="kity_text_49" text-rendering="inherit" font-size="12" dy=".8em" y="73.7000021263957" x="341.50001034885645">协议</text></g></g><g id="minder_node7"><g id="node_expander6" style="cursor: pointer;" display="none"><path id="kity_path_77" fill="white" stroke="gray" d="M387.5000109449029,55.5000017657876A6,6,0,1,1,375.5000109449029,55.5000017657876A6,6,0,1,1,387.5000109449029,55.5000017657876"></path><path id="kity_path_78" fill="none" stroke="gray"></path></g><path id="node_outline7" fill="none" stroke="none" d="M392.50001110881567,46.5000017657876h797a5,5,0,0,1,5,5v8a5,5,0,0,1,-5,5h-797a5,5,0,0,1,-5,-5v-8a5,5,0,0,1,5,-5z" stroke-width="3"></path><g id="node_text7" fill="black"><text id="kity_text_74" text-rendering="inherit" font-size="12" dy=".8em" y="47.70000173896551" x="392.50001110881567">主要包括各种实现资源共享的软件和方便用户使用的各种工具软件（如操作系统、邮件收发程序、FTP程序、聊天程序QQ等）。软件部分多属于应用层</text></g></g><g id="minder_node8"><g id="node_expander7" style="cursor: pointer;" display="none"><path id="kity_path_85" fill="white" stroke="gray" d="M388.50001095980406,81.50000215321779A6,6,0,1,1,376.50001095980406,81.50000215321779A6,6,0,1,1,388.50001095980406,81.50000215321779"></path><path id="kity_path_86" fill="none" stroke="gray"></path></g><path id="node_outline8" fill="none" stroke="none" d="M393.50001112371683,72.50000215321779h326a5,5,0,0,1,5,5v8a5,5,0,0,1,-5,5h-326a5,5,0,0,1,-5,-5v-8a5,5,0,0,1,5,-5z" stroke-width="3"></path><g id="node_text8" fill="black"><text id="kity_text_82" text-rendering="inherit" font-size="12" dy=".8em" y="73.7000021263957" x="393.50001112371683">协议是计网的核心。协议规定了网络传输数据时所遵循的规范</text></g></g><g id="minder_node12"><g id="node_expander11" style="cursor: pointer;"><path id="kity_path_127" fill="white" stroke="gray" d="M158.50000753253698,128.50000285357237A6,6,0,1,1,146.50000753253698,128.50000285357237A6,6,0,1,1,158.50000753253698,128.50000285357237"></path><path id="kity_path_128" fill="none" stroke="gray" d="M148.00000753253698,128.50000285357237L157.00000753253698,128.50000285357237"></path></g><path id="node_outline12" fill="rgb(238, 246, 238)" stroke="rgb(115, 191, 118)" d="M162.50000793486834,115.50000285357237h155a3,3,0,0,1,3,3v20a3,3,0,0,1,-3,3h-155a3,3,0,0,1,-3,-3v-20a3,3,0,0,1,3,-3z" stroke-width="1"></path><g id="node_text12" fill="black"><text id="kity_text_124" text-rendering="inherit" font-size="14" dy=".8em" y="119.40000282227993" x="179.50000793486834">2）从工作方式上看</text></g></g><g id="minder_node13"><g id="node_expander12" style="cursor: pointer;"><path id="kity_path_135" fill="white" stroke="gray" d="M158.50000753253698,188.50000374764204A6,6,0,1,1,146.50000753253698,188.50000374764204A6,6,0,1,1,158.50000753253698,188.50000374764204"></path><path id="kity_path_136" fill="none" stroke="gray" d="M148.00000753253698,188.50000374764204L157.00000753253698,188.50000374764204"></path></g><path id="node_outline13" fill="rgb(238, 246, 238)" stroke="rgb(115, 191, 118)" d="M162.50000793486834,175.50000374764204h155a3,3,0,0,1,3,3v20a3,3,0,0,1,-3,3h-155a3,3,0,0,1,-3,-3v-20a3,3,0,0,1,3,-3z" stroke-width="1"></path><g id="node_text13" fill="black"><text id="kity_text_132" text-rendering="inherit" font-size="14" dy=".8em" y="179.4000037163496" x="179.50000793486834">3）从功能组成上看</text></g></g><g id="minder_node15"><g id="node_expander14" style="cursor: pointer;"><path id="kity_path_151" fill="white" stroke="gray" d="M336.5000101849437,115.50000265985727A6,6,0,1,1,324.5000101849437,115.50000265985727A6,6,0,1,1,336.5000101849437,115.50000265985727"></path><path id="kity_path_152" fill="none" stroke="gray" d="M326.0000101849437,115.50000265985727L335.0000101849437,115.50000265985727"></path></g><path id="node_outline15" fill="none" stroke="none" d="M341.50001034885645,106.50000265985727h50a5,5,0,0,1,5,5v8a5,5,0,0,1,-5,5h-50a5,5,0,0,1,-5,-5v-8a5,5,0,0,1,5,-5z" stroke-width="3"></path><g id="node_text15" fill="black"><text id="kity_text_148" text-rendering="inherit" font-size="12" dy=".8em" y="107.70000263303518" x="341.50001034885645">边缘部分</text></g></g><g id="minder_node16"><g id="node_expander15" style="cursor: pointer;" display="none"><path id="kity_path_159" fill="white" stroke="gray" d="M412.5000113174319,115.50000265985727A6,6,0,1,1,400.5000113174319,115.50000265985727A6,6,0,1,1,412.5000113174319,115.50000265985727"></path><path id="kity_path_160" fill="none" stroke="gray"></path></g><path id="node_outline16" fill="none" stroke="none" d="M417.5000114813447,106.50000265985727h397a5,5,0,0,1,5,5v8a5,5,0,0,1,-5,5h-397a5,5,0,0,1,-5,-5v-8a5,5,0,0,1,5,-5z" stroke-width="3"></path><g id="node_text16" fill="black"><text id="kity_text_156" text-rendering="inherit" font-size="12" dy=".8em" y="107.70000263303518" x="417.5000114813447">由所有连接到因特网上、供用户直接使用的主机组成。用来通信和资源共享</text></g></g><g id="minder_node17"><g id="node_expander16" style="cursor: pointer;"><path id="kity_path_167" fill="white" stroke="gray" d="M336.5000101849437,141.50000304728746A6,6,0,1,1,324.5000101849437,141.50000304728746A6,6,0,1,1,336.5000101849437,141.50000304728746"></path><path id="kity_path_168" fill="none" stroke="gray" d="M326.0000101849437,141.50000304728746L335.0000101849437,141.50000304728746"></path></g><path id="node_outline17" fill="none" stroke="none" d="M341.50001034885645,132.50000304728746h50a5,5,0,0,1,5,5v8a5,5,0,0,1,-5,5h-50a5,5,0,0,1,-5,-5v-8a5,5,0,0,1,5,-5z" stroke-width="3"></path><g id="node_text17" fill="black"><text id="kity_text_164" text-rendering="inherit" font-size="12" dy=".8em" y="133.70000302046537" x="341.50001034885645">核心部分</text></g></g><g id="minder_node18"><g id="node_expander17" style="cursor: pointer;" display="none"><path id="kity_path_175" fill="white" stroke="gray" d="M412.5000113174319,141.50000304728746A6,6,0,1,1,400.5000113174319,141.50000304728746A6,6,0,1,1,412.5000113174319,141.50000304728746"></path><path id="kity_path_176" fill="none" stroke="gray"></path></g><path id="node_outline18" fill="none" stroke="none" d="M417.5000114813447,132.50000304728746h426a5,5,0,0,1,5,5v8a5,5,0,0,1,-5,5h-426a5,5,0,0,1,-5,-5v-8a5,5,0,0,1,5,-5z" stroke-width="3"></path><g id="node_text18" fill="black"><text id="kity_text_172" text-rendering="inherit" font-size="12" dy=".8em" y="133.70000302046537" x="417.5000114813447">由大量的 网络 和 连接这个网络的路由器 组成，为边缘部分提供通性和交换服务&#xa0;</text></g></g><g id="minder_node20" opacity="1"><g id="node_expander19" style="cursor: pointer;"><path id="kity_path_191" fill="white" stroke="gray" d="M336.5000101849437,201.50000394135714A6,6,0,1,1,324.5000101849437,201.50000394135714A6,6,0,1,1,336.5000101849437,201.50000394135714"></path><path id="kity_path_192" fill="none" stroke="gray" d="M326.0000101849437,201.50000394135714L335.0000101849437,201.50000394135714"></path></g><path id="node_outline20" fill="none" stroke="none" d="M341.50001034885645,192.50000394135714h49a5,5,0,0,1,5,5v8a5,5,0,0,1,-5,5h-49a5,5,0,0,1,-5,-5v-8a5,5,0,0,1,5,-5z" stroke-width="3"></path><g id="node_text20" fill="black"><text id="kity_text_188" text-rendering="inherit" font-size="12" dy=".8em" y="193.70000391453505" x="341.50001034885645">通信子网</text></g></g><g id="minder_node24"><g id="node_expander23" style="cursor: pointer;"><path id="kity_path_223" fill="white" stroke="gray" d="M336.5000101849437,175.50000355392694A6,6,0,1,1,324.5000101849437,175.50000355392694A6,6,0,1,1,336.5000101849437,175.50000355392694"></path><path id="kity_path_224" fill="none" stroke="gray" d="M326.0000101849437,175.50000355392694L335.0000101849437,175.50000355392694"></path></g><path id="node_outline24" fill="none" stroke="none" d="M341.50001034885645,166.50000355392694h48a5,5,0,0,1,5,5v8a5,5,0,0,1,-5,5h-48a5,5,0,0,1,-5,-5v-8a5,5,0,0,1,5,-5z" stroke-width="3"></path><g id="node_text24" fill="black"><text id="kity_text_220" text-rendering="inherit" font-size="12" dy=".8em" y="167.70000352710485" x="341.50001034885645">资源子网</text></g></g><g id="kity_g_12" display="none"><path id="kity_path_13" fill="none" stroke="rgb(66, 112, 68)" d="M341.50000574439764,224.50000274926424h48a5,5,0,0,1,5,5v8a5,5,0,0,1,-5,5h-48a5,5,0,0,1,-5,-5v-8a5,5,0,0,1,5,-5z" stroke-width="5"></path></g><g id="minder_node21"><g id="node_expander20" style="cursor: pointer;" display="none"><path id="kity_path_199" fill="white" stroke="gray" d="M411.50001130253077,201.50000394135714A6,6,0,1,1,399.50001130253077,201.50000394135714A6,6,0,1,1,411.50001130253077,201.50000394135714"></path><path id="kity_path_200" fill="none" stroke="gray"></path></g><path id="node_outline21" fill="none" stroke="none" d="M416.50001146644354,192.50000394135714h376a5,5,0,0,1,5,5v8a5,5,0,0,1,-5,5h-376a5,5,0,0,1,-5,-5v-8a5,5,0,0,1,5,-5z" stroke-width="3"></path><g id="node_text21" fill="black"><text id="kity_text_196" text-rendering="inherit" font-size="12" dy=".8em" y="193.70000391453505" x="416.50001146644354">由传输介质、通信设备、网络协议组成；有数据传输 、交换、存储功能</text></g></g><g id="minder_node25"><g id="node_expander24" style="cursor: pointer;" display="none"><path id="kity_path_234" fill="white" stroke="gray" d="M410.5000112876296,175.50000355392694A6,6,0,1,1,398.5000112876296,175.50000355392694A6,6,0,1,1,410.5000112876296,175.50000355392694"></path><path id="kity_path_235" fill="none" stroke="gray"></path></g><path id="node_outline25" fill="none" stroke="none" d="M415.5000114515424,166.50000355392694h218a5,5,0,0,1,5,5v8a5,5,0,0,1,-5,5h-218a5,5,0,0,1,-5,-5v-8a5,5,0,0,1,5,-5z" stroke-width="3"></path><g id="node_text25" fill="black"><text id="kity_text_231" text-rendering="inherit" font-size="12" dy=".8em" y="167.70000352710485" x="415.5000114515424">是实现资源共享功能的设备及其软件集合</text></g></g></g></g></svg>