<svg id="kity_svg_6" xmlns="http://www.w3.org/2000/svg" xmlns:xlink="http://www.w3.org/1999/xlink" version="1.1" width="777" height="194" style="background: rgb(251, 251, 251); visibility: visible;" viewBox="0 0 777 194"><defs id="kity_defs_7"><linearGradient id="kity_linearGradient_17" x1="0" y1="0" x2="0" y2="1"><stop id="kity_stop_18" offset="0" stop-color="rgb(255, 255, 255)"></stop><stop id="kity_stop_19" offset="1" stop-color="rgb(204, 204, 204)"></stop></linearGradient></defs><g id="kity_g_8"><g id="minder1" text-rendering="optimize-speed"><g id="minder_connect_group1"><path id="kity_path_31" fill="none" stroke="rgb(115, 191, 118)" stroke-width="1" d="M389.5000066384673,48.50000121444464v10h-323V66.50000121444464"></path><path id="kity_path_39" fill="none" stroke="rgb(115, 191, 118)" stroke-width="1" d="M389.5000066384673,48.50000121444464v10h0V66.50000121444464"></path><path id="kity_path_47" fill="none" stroke="rgb(115, 191, 118)" stroke-width="1" d="M389.5000066384673,48.50000121444464v10h323V66.50000121444464"></path><path id="kity_path_63" fill="none" stroke="rgb(115, 191, 118)" stroke-width="1" d="M389.5000066384673,92.50000121444464v8h-208.5V104.50000121444464"></path><path id="kity_path_71" fill="none" stroke="rgb(115, 191, 118)" stroke-width="1" d="M389.5000066384673,92.50000121444464v8h-45V104.50000121444464"></path><path id="kity_path_79" fill="none" stroke="rgb(115, 191, 118)" stroke-width="1" d="M389.5000066384673,92.50000121444464v8h153V104.50000121444464"></path><path id="kity_path_87" fill="none" stroke="rgb(115, 191, 118)" stroke-width="1" d="M389.5000066384673,92.50000121444464v8h225.5V104.50000121444464"></path><path id="kity_path_95" fill="none" stroke="rgb(115, 191, 118)" stroke-width="1" d="M344.5000066384673,122.50000121444464v4h-65V130.50000121444464"></path><path id="kity_path_103" fill="none" stroke="rgb(115, 191, 118)" stroke-width="1" d="M344.5000066384673,122.50000121444464v4h71V130.50000121444464"></path><path id="kity_path_111" fill="none" stroke="rgb(115, 191, 118)" stroke-width="1" d="M415.5000066384673,148.50000121444464v4h-37.5V156.50000121444464"></path><path id="kity_path_119" fill="none" stroke="rgb(115, 191, 118)" stroke-width="1" d="M415.5000066384673,148.50000121444464v4h61V156.50000121444464"></path></g><g id="minder_node1"><path id="node_outline1" fill="rgb(115, 191, 118)" stroke="rgb(115, 191, 118)" d="M360.5000066384673,20.500001214444637h57a5,5,0,0,1,5,5v18a5,5,0,0,1,-5,5h-57a5,5,0,0,1,-5,-5v-18a5,5,0,0,1,5,-5z" stroke-width="3"></path><g id="node_text1" fill="white"><text id="kity_text_22" text-rendering="inherit" font-size="16" dy=".8em" y="24.10000117868185" x="367.5000066384673">C程序</text></g></g><g id="kity_g_12"><path id="kity_path_13" fill="none" stroke="none" d="M367.5000066384673,34.50000121444464h0v0h0z"></path></g><g id="kity_g_14"><path id="kity_path_15" fill="none" stroke="none" d="M367.5000066384673,34.50000121444464h0v0h0z"></path><path id="kity_path_16" fill="none" stroke="none"></path></g><g id="minder_node2"><g id="node_expander1" style="cursor: pointer;" display="none"><path id="kity_path_36" fill="white" stroke="gray" d="M72.00000214576721,59.50000158697367A6,6,0,1,1,60.00000214576721,59.50000158697367A6,6,0,1,1,72.00000214576721,59.50000158697367"></path><path id="kity_path_37" fill="none" stroke="gray" d="M61.50000214576721,59.50000158697367L70.50000214576721,59.50000158697367"></path></g><path id="node_outline2" fill="rgb(238, 246, 238)" stroke="rgb(115, 191, 118)" d="M23.5000017657876,66.50000188499689h85a3,3,0,0,1,3,3v20a3,3,0,0,1,-3,3h-85a3,3,0,0,1,-3,-3v-20a3,3,0,0,1,3,-3z" stroke-width="1"></path><g id="node_text2" fill="black"><text id="kity_text_33" text-rendering="inherit" font-size="14" dy=".8em" y="70.40000185370445" x="40.5000017657876">源程序1</text></g></g><g id="minder_node3"><g id="node_expander2" style="cursor: pointer;"><path id="kity_path_44" fill="white" stroke="gray" d="M395.0000069588423,59.50000158697367A6,6,0,1,1,383.0000069588423,59.50000158697367A6,6,0,1,1,395.0000069588423,59.50000158697367"></path><path id="kity_path_45" fill="none" stroke="gray" d="M384.5000069588423,59.50000158697367L393.5000069588423,59.50000158697367"></path></g><path id="node_outline3" fill="rgb(238, 246, 238)" stroke="rgb(115, 191, 118)" d="M346.50000657886267,66.50000188499689h85a3,3,0,0,1,3,3v20a3,3,0,0,1,-3,3h-85a3,3,0,0,1,-3,-3v-20a3,3,0,0,1,3,-3z" stroke-width="1"></path><g id="node_text3" fill="black"><text id="kity_text_41" text-rendering="inherit" font-size="14" dy=".8em" y="70.40000185370445" x="363.50000657886267">源程序2</text></g></g><g id="minder_node4"><g id="node_expander3" style="cursor: pointer;" display="none"><path id="kity_path_52" fill="white" stroke="gray" d="M718.0000117719173,59.50000158697367A6,6,0,1,1,706.0000117719173,59.50000158697367A6,6,0,1,1,718.0000117719173,59.50000158697367"></path><path id="kity_path_53" fill="none" stroke="gray"></path></g><path id="node_outline4" fill="rgb(238, 246, 238)" stroke="rgb(115, 191, 118)" d="M669.5000113919377,66.50000188499689h85a3,3,0,0,1,3,3v20a3,3,0,0,1,-3,3h-85a3,3,0,0,1,-3,-3v-20a3,3,0,0,1,3,-3z" stroke-width="1"></path><g id="node_text4" fill="black"><text id="kity_text_49" text-rendering="inherit" font-size="14" dy=".8em" y="70.40000185370445" x="686.5000113919377">源程序3</text></g></g><g id="minder_node6"><g id="node_expander5" style="cursor: pointer;" display="none"><path id="kity_path_68" fill="white" stroke="gray" d="M186.50000385195017,98.50000216811895A6,6,0,1,1,174.50000385195017,98.50000216811895A6,6,0,1,1,186.50000385195017,98.50000216811895"></path><path id="kity_path_69" fill="none" stroke="gray"></path></g><path id="node_outline6" fill="none" stroke="none" d="M132.50000313669443,104.50000239163637h96a5,5,0,0,1,5,5v8a5,5,0,0,1,-5,5h-96a5,5,0,0,1,-5,-5v-8a5,5,0,0,1,5,-5z" stroke-width="3"></path><g id="node_text6" fill="black"><text id="kity_text_65" text-rendering="inherit" font-size="12" dy=".8em" y="105.70000236481428" x="132.50000313669443">（全局）数据声明</text></g></g><g id="minder_node7"><g id="node_expander6" style="cursor: pointer;"><path id="kity_path_76" fill="white" stroke="gray" d="M350.00000628829,98.50000216811895A6,6,0,1,1,338.00000628829,98.50000216811895A6,6,0,1,1,350.00000628829,98.50000216811895"></path><path id="kity_path_77" fill="none" stroke="gray" d="M339.50000628829,98.50000216811895L348.50000628829,98.50000216811895"></path></g><path id="node_outline7" fill="none" stroke="none" d="M328.500006057322,104.50000239163637h31a5,5,0,0,1,5,5v8a5,5,0,0,1,-5,5h-31a5,5,0,0,1,-5,-5v-8a5,5,0,0,1,5,-5z" stroke-width="3"></path><g id="node_text7" fill="black"><text id="kity_text_73" text-rendering="inherit" font-size="12" dy=".8em" y="105.70000236481428" x="328.500006057322">函数1</text></g></g><g id="minder_node8"><g id="node_expander7" style="cursor: pointer;" display="none"><path id="kity_path_84" fill="white" stroke="gray" d="M548.0000092387199,98.50000216811895A6,6,0,1,1,536.0000092387199,98.50000216811895A6,6,0,1,1,548.0000092387199,98.50000216811895"></path><path id="kity_path_85" fill="none" stroke="gray"></path></g><path id="node_outline8" fill="none" stroke="none" d="M526.5000090077519,104.50000239163637h31a5,5,0,0,1,5,5v8a5,5,0,0,1,-5,5h-31a5,5,0,0,1,-5,-5v-8a5,5,0,0,1,5,-5z" stroke-width="3"></path><g id="node_text8" fill="black"><text id="kity_text_81" text-rendering="inherit" font-size="12" dy=".8em" y="105.70000236481428" x="526.5000090077519">函数2</text></g></g><g id="minder_node9"><g id="node_expander8" style="cursor: pointer;" display="none"><path id="kity_path_92" fill="white" stroke="gray" d="M620.5000103190541,98.50000216811895A6,6,0,1,1,608.5000103190541,98.50000216811895A6,6,0,1,1,620.5000103190541,98.50000216811895"></path><path id="kity_path_93" fill="none" stroke="gray"></path></g><path id="node_outline9" fill="none" stroke="none" d="M583.5000098571181,104.50000239163637h62a5,5,0,0,1,5,5v8a5,5,0,0,1,-5,5h-62a5,5,0,0,1,-5,-5v-8a5,5,0,0,1,5,-5z" stroke-width="3"></path><g id="node_text9" fill="black"><text id="kity_text_89" text-rendering="inherit" font-size="12" dy=".8em" y="105.70000236481428" x="583.5000098571181">预编译指令</text></g></g><g id="minder_node10"><g id="node_expander9" style="cursor: pointer;" display="none"><path id="kity_path_100" fill="white" stroke="gray" d="M285.00000531971455,124.50000255554914A6,6,0,1,1,273.00000531971455,124.50000255554914A6,6,0,1,1,285.00000531971455,124.50000255554914"></path><path id="kity_path_101" fill="none" stroke="gray"></path></g><path id="node_outline10" fill="none" stroke="none" d="M254.5000049546361,130.50000277906656h49a5,5,0,0,1,5,5v8a5,5,0,0,1,-5,5h-49a5,5,0,0,1,-5,-5v-8a5,5,0,0,1,5,-5z" stroke-width="3"></path><g id="node_text10" fill="black"><text id="kity_text_97" text-rendering="inherit" font-size="12" dy=".8em" y="131.70000275224447" x="254.5000049546361">函数首部</text></g></g><g id="minder_node11"><g id="node_expander10" style="cursor: pointer;"><path id="kity_path_108" fill="white" stroke="gray" d="M421.00000734627247,124.50000255554914A6,6,0,1,1,409.00000734627247,124.50000255554914A6,6,0,1,1,421.00000734627247,124.50000255554914"></path><path id="kity_path_109" fill="none" stroke="gray" d="M410.50000734627247,124.50000255554914L419.50000734627247,124.50000255554914"></path></g><path id="node_outline11" fill="none" stroke="none" d="M396.500007070601,130.50000277906656h37a5,5,0,0,1,5,5v8a5,5,0,0,1,-5,5h-37a5,5,0,0,1,-5,-5v-8a5,5,0,0,1,5,-5z" stroke-width="3"></path><g id="node_text11" fill="black"><text id="kity_text_105" text-rendering="inherit" font-size="12" dy=".8em" y="131.70000275224447" x="396.500007070601">函数体</text></g></g><g id="minder_node12"><g id="node_expander11" style="cursor: pointer;" display="none"><path id="kity_path_116" fill="white" stroke="gray" d="M383.5000067874789,150.50000294297934A6,6,0,1,1,371.5000067874789,150.50000294297934A6,6,0,1,1,383.5000067874789,150.50000294297934"></path><path id="kity_path_117" fill="none" stroke="gray"></path></g><path id="node_outline12" fill="none" stroke="none" d="M329.5000060722232,156.50000316649675h96a5,5,0,0,1,5,5v8a5,5,0,0,1,-5,5h-96a5,5,0,0,1,-5,-5v-8a5,5,0,0,1,5,-5z" stroke-width="3"></path><g id="node_text12" fill="black"><text id="kity_text_113" text-rendering="inherit" font-size="12" dy=".8em" y="157.70000313967466" x="329.5000060722232">（局部）数据声明</text></g></g><g id="minder_node13"><g id="node_expander12" style="cursor: pointer;" display="none"><path id="kity_path_124" fill="white" stroke="gray" d="M482.0000082552433,150.50000294297934A6,6,0,1,1,470.0000082552433,150.50000294297934A6,6,0,1,1,482.0000082552433,150.50000294297934"></path><path id="kity_path_125" fill="none" stroke="gray"></path></g><path id="node_outline13" fill="none" stroke="none" d="M451.50000789016485,156.50000316649675h49a5,5,0,0,1,5,5v8a5,5,0,0,1,-5,5h-49a5,5,0,0,1,-5,-5v-8a5,5,0,0,1,5,-5z" stroke-width="3"></path><g id="node_text13" fill="black"><text id="kity_text_121" text-rendering="inherit" font-size="12" dy=".8em" y="157.70000313967466" x="451.50000789016485">执行语句</text></g></g></g></g></svg>