<svg id="kity_svg_6" xmlns="http://www.w3.org/2000/svg" xmlns:xlink="http://www.w3.org/1999/xlink" version="1.1" width="606" height="408" style="background: rgb(251, 251, 251); visibility: visible;" viewBox="0 0 606 408"><defs id="kity_defs_7"><linearGradient id="kity_linearGradient_17" x1="0" y1="0" x2="0" y2="1"><stop id="kity_stop_18" offset="0" stop-color="rgb(255, 255, 255)"></stop><stop id="kity_stop_19" offset="1" stop-color="rgb(204, 204, 204)"></stop></linearGradient><marker id="kity_marker_2" orient="auto" refX="6" refY="0" viewBox="-7 -7 14 14" markerWidth="7" markerHeight="7" markerUnits="userSpaceOnUse"><path id="kity_path_3" fill="rgb(115, 191, 118)" stroke="none" d="M6,0A6,6,0,1,1,-6,0A6,6,0,1,1,6,0"></path></marker></defs><g id="kity_g_8"><g id="minder1" text-rendering="optimize-speed"><g id="minder_connect_group1"><path id="kity_path_119" fill="none" stroke="rgb(115, 191, 118)" stroke-width="1" d="M54.00000227242708,247.5000039115548A49.5,127,0,0,1,103.50000227242708,120.50000391155481"></path><path id="kity_path_127" fill="none" stroke="rgb(115, 191, 118)" stroke-width="1" d="M54.00000227242708,247.5000039115548A49.5,2,0,0,0,103.50000227242708,249.5000039115548"></path><path id="kity_path_143" fill="none" stroke="rgb(115, 191, 118)" stroke-width="1" d="M54.00000227242708,247.5000039115548A49.5,44,0,0,0,103.50000227242708,291.5000039115548"></path><path id="kity_path_151" fill="none" stroke="rgb(115, 191, 118)" stroke-width="1" d="M54.00000227242708,247.5000039115548A49.5,86,0,0,0,103.50000227242708,333.5000039115548"></path><path id="kity_path_167" fill="none" stroke="rgb(115, 191, 118)" stroke-width="1" d="M202.50000227242708,120.50000391155481C210.50000227242708,120.50000391155481,210.50000227242708,29.500003911554813,218.50000227242708,29.500003911554813"></path><path id="kity_path_175" fill="none" stroke="rgb(115, 191, 118)" stroke-width="1" d="M202.50000227242708,120.50000391155481C210.50000227242708,120.50000391155481,210.50000227242708,55.50000391155481,218.50000227242708,55.50000391155481"></path><path id="kity_path_183" fill="none" stroke="rgb(115, 191, 118)" stroke-width="1" d="M202.50000227242708,120.50000391155481C210.50000227242708,120.50000391155481,210.50000227242708,81.50000391155481,218.50000227242708,81.50000391155481"></path><path id="kity_path_191" fill="none" stroke="rgb(115, 191, 118)" stroke-width="1" d="M202.50000227242708,120.50000391155481C210.50000227242708,120.50000391155481,210.50000227242708,107.50000391155481,218.50000227242708,107.50000391155481"></path><path id="kity_path_199" fill="none" stroke="rgb(115, 191, 118)" stroke-width="1" d="M202.50000227242708,120.50000391155481C210.50000227242708,120.50000391155481,210.50000227242708,133.5000039115548,218.50000227242708,133.5000039115548"></path><path id="kity_path_207" fill="none" stroke="rgb(115, 191, 118)" stroke-width="1" d="M202.50000227242708,120.50000391155481C210.50000227242708,120.50000391155481,210.50000227242708,159.5000039115548,218.50000227242708,159.5000039115548"></path><path id="kity_path_215" fill="none" stroke="rgb(115, 191, 118)" stroke-width="1" d="M202.50000227242708,120.50000391155481C210.50000227242708,120.50000391155481,210.50000227242708,185.5000039115548,218.50000227242708,185.5000039115548"></path><path id="kity_path_223" fill="none" stroke="rgb(115, 191, 118)" stroke-width="1" d="M202.50000227242708,120.50000391155481C210.50000227242708,120.50000391155481,210.50000227242708,211.5000039115548,218.50000227242708,211.5000039115548"></path><path id="kity_path_231" fill="none" stroke="rgb(115, 191, 118)" stroke-width="1" d="M229.50000227242708,249.5000039115548C237.50000227242708,249.5000039115548,237.50000227242708,249.5000039115548,245.50000227242708,249.5000039115548"></path><path id="kity_path_239" fill="none" stroke="rgb(115, 191, 118)" stroke-width="1" d="M215.50000227242708,291.5000039115548C223.50000227242708,291.5000039115548,223.50000227242708,291.5000039115548,231.50000227242708,291.5000039115548"></path><path id="kity_path_247" fill="none" stroke="rgb(115, 191, 118)" stroke-width="1" d="M187.50000227242708,333.5000039115548C195.50000227242708,333.5000039115548,195.50000227242708,333.5000039115548,203.50000227242708,333.5000039115548"></path><path id="kity_path_263" fill="none" stroke="rgb(115, 191, 118)" stroke-width="1" d="M54.00000227242708,247.5000039115548A49.5,128,0,0,0,103.50000227242708,375.5000039115548"></path><path id="kity_path_271" fill="none" stroke="rgb(115, 191, 118)" stroke-width="1" d="M202.50000227242708,375.5000039115548C210.50000227242708,375.5000039115548,210.50000227242708,375.5000039115548,218.50000227242708,375.5000039115548"></path></g><g id="minder_node1"><path id="node_outline1" fill="rgb(115, 191, 118)" stroke="rgb(115, 191, 118)" d="M25.500002272427082,233.5000039115548h57a5,5,0,0,1,5,5v18a5,5,0,0,1,-5,5h-57a5,5,0,0,1,-5,-5v-18a5,5,0,0,1,5,-5z" stroke-width="3"></path><g id="node_text1" fill="white"><text id="kity_text_22" text-rendering="inherit" font-size="16" dy=".8em" y="237.10000387579203" x="32.50000227242708">C语句</text></g></g><g id="kity_g_12" display="none"><path id="kity_path_13" fill="none" stroke="none" d="M32.50000227242708,247.5000039115548h0v0h0z"></path></g><g id="kity_g_14" display="none"><path id="kity_path_15" fill="none" stroke="none" d="M32.50000227242708,247.5000039115548h0v0h0z"></path><path id="kity_path_16" fill="none" stroke="none"></path></g><g id="minder_node13"><g id="node_expander12" style="cursor: pointer;"><path id="kity_path_124" fill="white" stroke="gray" d="M104.50000325590372,120.50000201910734A6,6,0,1,1,92.50000325590372,120.50000201910734A6,6,0,1,1,104.50000325590372,120.50000201910734"></path><path id="kity_path_125" fill="none" stroke="gray" d="M94.00000325590372,120.50000201910734L103.00000325590372,120.50000201910734"></path></g><path id="node_outline13" fill="rgb(238, 246, 238)" stroke="rgb(115, 191, 118)" d="M108.50000365823507,107.50000201910734h91a3,3,0,0,1,3,3v20a3,3,0,0,1,-3,3h-91a3,3,0,0,1,-3,-3v-20a3,3,0,0,1,3,-3z" stroke-width="1"></path><g id="node_text13" fill="black"><text id="kity_text_121" text-rendering="inherit" font-size="14" dy=".8em" y="111.4000019878149" x="125.50000365823507">控制语句</text></g></g><g id="minder_node14"><g id="node_expander13" style="cursor: pointer;"><path id="kity_path_132" fill="white" stroke="gray" d="M104.50000325590372,249.50000394135714A6,6,0,1,1,92.50000325590372,249.50000394135714A6,6,0,1,1,104.50000325590372,249.50000394135714"></path><path id="kity_path_133" fill="none" stroke="gray" d="M94.00000325590372,249.50000394135714L103.00000325590372,249.50000394135714"></path></g><path id="node_outline14" fill="rgb(238, 246, 238)" stroke="rgb(115, 191, 118)" d="M108.50000365823507,236.50000394135714h118a3,3,0,0,1,3,3v20a3,3,0,0,1,-3,3h-118a3,3,0,0,1,-3,-3v-20a3,3,0,0,1,3,-3z" stroke-width="1"></path><g id="node_text14" fill="black"><text id="kity_text_129" text-rendering="inherit" font-size="14" dy=".8em" y="240.4000039100647" x="125.50000365823507">函数调用语句</text></g></g><g id="minder_node16"><g id="node_expander15" style="cursor: pointer;"><path id="kity_path_148" fill="white" stroke="gray" d="M104.50000325590372,291.5000045672059A6,6,0,1,1,92.50000325590372,291.5000045672059A6,6,0,1,1,104.50000325590372,291.5000045672059"></path><path id="kity_path_149" fill="none" stroke="gray" d="M94.00000325590372,291.5000045672059L103.00000325590372,291.5000045672059"></path></g><path id="node_outline16" fill="rgb(238, 246, 238)" stroke="rgb(115, 191, 118)" d="M108.50000365823507,278.5000045672059h104a3,3,0,0,1,3,3v20a3,3,0,0,1,-3,3h-104a3,3,0,0,1,-3,-3v-20a3,3,0,0,1,3,-3z" stroke-width="1"></path><g id="node_text16" fill="black"><text id="kity_text_145" text-rendering="inherit" font-size="14" dy=".8em" y="282.40000453591347" x="125.50000365823507">表达式语句</text></g></g><g id="minder_node17"><g id="node_expander16" style="cursor: pointer;"><path id="kity_path_156" fill="white" stroke="gray" d="M104.50000325590372,333.5000051930547A6,6,0,1,1,92.50000325590372,333.5000051930547A6,6,0,1,1,104.50000325590372,333.5000051930547"></path><path id="kity_path_157" fill="none" stroke="gray" d="M94.00000325590372,333.5000051930547L103.00000325590372,333.5000051930547"></path></g><path id="node_outline17" fill="rgb(238, 246, 238)" stroke="rgb(115, 191, 118)" d="M108.50000365823507,320.5000051930547h76a3,3,0,0,1,3,3v20a3,3,0,0,1,-3,3h-76a3,3,0,0,1,-3,-3v-20a3,3,0,0,1,3,-3z" stroke-width="1"></path><g id="node_text17" fill="black"><text id="kity_text_153" text-rendering="inherit" font-size="14" dy=".8em" y="324.40000516176224" x="125.50000365823507">空语句</text></g></g><g id="minder_node19"><g id="node_expander18" style="cursor: pointer;" display="none"><path id="kity_path_172" fill="white" stroke="gray" d="M218.5000049546361,29.500000663101673A6,6,0,1,1,206.5000049546361,29.500000663101673A6,6,0,1,1,218.5000049546361,29.500000663101673"></path><path id="kity_path_173" fill="none" stroke="gray"></path></g><path id="node_outline19" fill="none" stroke="none" d="M223.50000511854887,20.500000663101673h102a5,5,0,0,1,5,5v8a5,5,0,0,1,-5,5h-102a5,5,0,0,1,-5,-5v-8a5,5,0,0,1,5,-5z" stroke-width="3"></path><g id="node_text19" fill="black"><text id="kity_text_169" text-rendering="inherit" font-size="12" dy=".8em" y="21.700000636279583" x="223.50000511854887">if() ~else 条件语句</text></g></g><g id="minder_node20"><g id="node_expander19" style="cursor: pointer;" display="none"><path id="kity_path_180" fill="white" stroke="gray" d="M218.5000049546361,55.500001050531864A6,6,0,1,1,206.5000049546361,55.500001050531864A6,6,0,1,1,218.5000049546361,55.500001050531864"></path><path id="kity_path_181" fill="none" stroke="gray"></path></g><path id="node_outline20" fill="none" stroke="none" d="M223.50000511854887,46.500001050531864h76a5,5,0,0,1,5,5v8a5,5,0,0,1,-5,5h-76a5,5,0,0,1,-5,-5v-8a5,5,0,0,1,5,-5z" stroke-width="3"></path><g id="node_text20" fill="black"><text id="kity_text_177" text-rendering="inherit" font-size="12" dy=".8em" y="47.700001023709774" x="223.50000511854887">for() 循环语句</text></g></g><g id="minder_node21"><g id="node_expander20" style="cursor: pointer;" display="none"><path id="kity_path_188" fill="white" stroke="gray" d="M218.5000049546361,81.50000143796206A6,6,0,1,1,206.5000049546361,81.50000143796206A6,6,0,1,1,218.5000049546361,81.50000143796206"></path><path id="kity_path_189" fill="none" stroke="gray"></path></g><path id="node_outline21" fill="none" stroke="none" d="M223.50000511854887,72.50000143796206h90a5,5,0,0,1,5,5v8a5,5,0,0,1,-5,5h-90a5,5,0,0,1,-5,-5v-8a5,5,0,0,1,5,-5z" stroke-width="3"></path><g id="node_text21" fill="black"><text id="kity_text_185" text-rendering="inherit" font-size="12" dy=".8em" y="73.70000141113997" x="223.50000511854887">while() 循环语句</text></g></g><g id="minder_node22"><g id="node_expander21" style="cursor: pointer;" display="none"><path id="kity_path_196" fill="white" stroke="gray" d="M218.5000049546361,107.50000182539225A6,6,0,1,1,206.5000049546361,107.50000182539225A6,6,0,1,1,218.5000049546361,107.50000182539225"></path><path id="kity_path_197" fill="none" stroke="gray"></path></g><path id="node_outline22" fill="none" stroke="none" d="M223.50000511854887,98.50000182539225h100a5,5,0,0,1,5,5v8a5,5,0,0,1,-5,5h-100a5,5,0,0,1,-5,-5v-8a5,5,0,0,1,5,-5z" stroke-width="3"></path><g id="node_text22" fill="black"><text id="kity_text_193" text-rendering="inherit" font-size="12" dy=".8em" y="99.70000179857016" x="223.50000511854887">do while 循环语句</text></g></g><g id="minder_node23"><g id="node_expander22" style="cursor: pointer;" display="none"><path id="kity_path_204" fill="white" stroke="gray" d="M218.5000049546361,133.50000221282244A6,6,0,1,1,206.5000049546361,133.50000221282244A6,6,0,1,1,218.5000049546361,133.50000221282244"></path><path id="kity_path_205" fill="none" stroke="gray"></path></g><path id="node_outline23" fill="none" stroke="none" d="M223.50000511854887,124.50000221282244h102a5,5,0,0,1,5,5v8a5,5,0,0,1,-5,5h-102a5,5,0,0,1,-5,-5v-8a5,5,0,0,1,5,-5z" stroke-width="3"></path><g id="node_text23" fill="black"><text id="kity_text_201" text-rendering="inherit" font-size="12" dy=".8em" y="125.70000218600035" x="223.50000511854887">continue 继续语句</text></g></g><g id="minder_node24"><g id="node_expander23" style="cursor: pointer;" display="none"><path id="kity_path_212" fill="white" stroke="gray" d="M218.5000049546361,159.50000260025263A6,6,0,1,1,206.5000049546361,159.50000260025263A6,6,0,1,1,218.5000049546361,159.50000260025263"></path><path id="kity_path_213" fill="none" stroke="gray"></path></g><path id="node_outline24" fill="none" stroke="none" d="M223.50000511854887,150.50000260025263h84a5,5,0,0,1,5,5v8a5,5,0,0,1,-5,5h-84a5,5,0,0,1,-5,-5v-8a5,5,0,0,1,5,-5z" stroke-width="3"></path><g id="node_text24" fill="black"><text id="kity_text_209" text-rendering="inherit" font-size="12" dy=".8em" y="151.70000257343054" x="223.50000511854887">break 间断语句</text></g></g><g id="minder_node25"><g id="node_expander24" style="cursor: pointer;" display="none"><path id="kity_path_220" fill="white" stroke="gray" d="M218.5000049546361,185.50000298768282A6,6,0,1,1,206.5000049546361,185.50000298768282A6,6,0,1,1,218.5000049546361,185.50000298768282"></path><path id="kity_path_221" fill="none" stroke="gray"></path></g><path id="node_outline25" fill="none" stroke="none" d="M223.50000511854887,176.50000298768282h87a5,5,0,0,1,5,5v8a5,5,0,0,1,-5,5h-87a5,5,0,0,1,-5,-5v-8a5,5,0,0,1,5,-5z" stroke-width="3"></path><g id="node_text25" fill="black"><text id="kity_text_217" text-rendering="inherit" font-size="12" dy=".8em" y="177.70000296086073" x="223.50000511854887">return 返回语句</text></g></g><g id="minder_node26"><g id="node_expander25" style="cursor: pointer;" display="none"><path id="kity_path_228" fill="white" stroke="gray" d="M218.5000049546361,211.500003375113A6,6,0,1,1,206.5000049546361,211.500003375113A6,6,0,1,1,218.5000049546361,211.500003375113"></path><path id="kity_path_229" fill="none" stroke="gray"></path></g><path id="node_outline26" fill="none" stroke="none" d="M223.50000511854887,202.500003375113h79a5,5,0,0,1,5,5v8a5,5,0,0,1,-5,5h-79a5,5,0,0,1,-5,-5v-8a5,5,0,0,1,5,-5z" stroke-width="3"></path><g id="node_text26" fill="black"><text id="kity_text_225" text-rendering="inherit" font-size="12" dy=".8em" y="203.70000334829092" x="223.50000511854887">goto 转向语句</text></g></g><g id="minder_node27"><g id="node_expander26" style="cursor: pointer;" display="none"><path id="kity_path_236" fill="white" stroke="gray" d="M245.50000535696745,249.50000394135714A6,6,0,1,1,233.50000535696745,249.50000394135714A6,6,0,1,1,245.50000535696745,249.50000394135714"></path><path id="kity_path_237" fill="none" stroke="gray"></path></g><path id="node_outline27" fill="none" stroke="none" d="M250.50000552088022,240.50000394135714h331a5,5,0,0,1,5,5v8a5,5,0,0,1,-5,5h-331a5,5,0,0,1,-5,-5v-8a5,5,0,0,1,5,-5z" stroke-width="3"></path><g id="node_text27" fill="black"><text id="kity_text_233" text-rendering="inherit" font-size="12" dy=".8em" y="241.70000391453505" x="250.50000552088022">由一个函数调用加一个分号构成一个语句：Printf(“hello”)；</text></g></g><g id="minder_node28"><g id="node_expander27" style="cursor: pointer;" display="none"><path id="kity_path_244" fill="white" stroke="gray" d="M231.5000051483512,291.5000045672059A6,6,0,1,1,219.5000051483512,291.5000045672059A6,6,0,1,1,231.5000051483512,291.5000045672059"></path><path id="kity_path_245" fill="none" stroke="gray"></path></g><path id="node_outline28" fill="none" stroke="none" d="M236.50000531226397,282.5000045672059h201a5,5,0,0,1,5,5v8a5,5,0,0,1,-5,5h-201a5,5,0,0,1,-5,-5v-8a5,5,0,0,1,5,-5z" stroke-width="3"></path><g id="node_text28" fill="black"><text id="kity_text_241" text-rendering="inherit" font-size="12" dy=".8em" y="283.7000045403838" x="236.50000531226397">表达式 + 分号 = 表达式语句：a = 3 ;</text></g></g><g id="minder_node29"><g id="node_expander28" style="cursor: pointer;" display="none"><path id="kity_path_252" fill="white" stroke="gray" d="M203.50000473111868,333.5000051930547A6,6,0,1,1,191.50000473111868,333.5000051930547A6,6,0,1,1,203.50000473111868,333.5000051930547"></path><path id="kity_path_253" fill="none" stroke="gray"></path></g><path id="node_outline29" fill="none" stroke="none" d="M208.50000489503145,324.5000051930547h326a5,5,0,0,1,5,5v8a5,5,0,0,1,-5,5h-326a5,5,0,0,1,-5,-5v-8a5,5,0,0,1,5,-5z" stroke-width="3"></path><g id="node_text29" fill="black"><text id="kity_text_249" text-rendering="inherit" font-size="12" dy=".8em" y="325.7000051662326" x="208.50000489503145">只有一个分号的语句；作为流程的转向点，循环语句的循环体</text></g></g><g id="minder_node31"><g id="node_expander30" style="cursor: pointer;"><path id="kity_path_268" fill="white" stroke="gray" d="M104.50000325590372,375.50000581890345A6,6,0,1,1,92.50000325590372,375.50000581890345A6,6,0,1,1,104.50000325590372,375.50000581890345"></path><path id="kity_path_269" fill="none" stroke="gray" d="M94.00000325590372,375.50000581890345L103.00000325590372,375.50000581890345"></path></g><path id="node_outline31" fill="rgb(238, 246, 238)" stroke="rgb(115, 191, 118)" d="M108.50000365823507,362.50000581890345h91a3,3,0,0,1,3,3v20a3,3,0,0,1,-3,3h-91a3,3,0,0,1,-3,-3v-20a3,3,0,0,1,3,-3z" stroke-width="1"></path><g id="node_text31" fill="black"><text id="kity_text_265" text-rendering="inherit" font-size="14" dy=".8em" y="366.400005787611" x="125.50000365823507">复合语句</text></g></g><g id="minder_node32"><g id="node_expander31" style="cursor: pointer;" display="none"><path id="kity_path_276" fill="white" stroke="gray" d="M218.5000049546361,375.50000581890345A6,6,0,1,1,206.5000049546361,375.50000581890345A6,6,0,1,1,218.5000049546361,375.50000581890345"></path><path id="kity_path_277" fill="none" stroke="gray"></path></g><path id="node_outline32" fill="none" stroke="none" d="M223.50000511854887,366.50000581890345h80a5,5,0,0,1,5,5v8a5,5,0,0,1,-5,5h-80a5,5,0,0,1,-5,-5v-8a5,5,0,0,1,5,-5z" stroke-width="3"></path><g id="node_text32" fill="black"><text id="kity_text_273" text-rendering="inherit" font-size="12" dy=".8em" y="367.70000579208136" x="223.50000511854887">{}括起来的语句</text></g></g></g></g></svg>