<svg id="kity_svg_6" xmlns="http://www.w3.org/2000/svg" xmlns:xlink="http://www.w3.org/1999/xlink" version="1.1" width="1013" height="234" style="background: rgb(251, 251, 251); visibility: visible;" viewBox="0 0 1013 234"><defs id="kity_defs_7"><linearGradient id="kity_linearGradient_17" x1="0" y1="0" x2="0" y2="1"><stop id="kity_stop_18" offset="0" stop-color="rgb(255, 255, 255)"></stop><stop id="kity_stop_19" offset="1" stop-color="rgb(204, 204, 204)"></stop></linearGradient><marker id="kity_marker_2" orient="auto" refX="6" refY="0" viewBox="-7 -7 14 14" markerWidth="7" markerHeight="7" markerUnits="userSpaceOnUse"><path id="kity_path_3" fill="rgb(115, 191, 118)" stroke="none" d="M6,0A6,6,0,1,1,-6,0A6,6,0,1,1,6,0"></path></marker></defs><g id="kity_g_8"><g id="minder1" text-rendering="geometricPrecision"><g id="minder_connect_group1"><path id="kity_path_31" fill="none" stroke="rgb(115, 191, 118)" stroke-width="1" d="M566.5000109598041,117.50000459700823A60,84,0,0,1,626.5000109598041,33.50000459700823"></path><path id="kity_path_39" fill="none" stroke="rgb(115, 191, 118)" stroke-width="1" d="M566.5000109598041,117.50000459700823A60,42,0,0,1,626.5000109598041,75.50000459700823"></path><path id="kity_path_47" fill="none" stroke="rgb(115, 191, 118)" stroke-width="1" d="M566.5000109598041,117.50000459700823A60,0,0,0,1,626.5000109598041,117.50000459700823"></path><path id="kity_path_55" fill="none" stroke="rgb(115, 191, 118)" stroke-width="1" d="M566.5000109598041,117.50000459700823A60,42,0,0,0,626.5000109598041,159.50000459700823"></path><path id="kity_path_63" fill="none" stroke="rgb(115, 191, 118)" stroke-width="1" d="M566.5000109598041,117.50000459700823A60,84,0,0,0,626.5000109598041,201.50000459700823"></path><path id="kity_path_71" fill="none" stroke="rgb(115, 191, 118)" stroke-width="1" d="M566.5000109598041,117.50000459700823A60,63,0,0,0,506.50001095980406,54.50000459700823"></path><path id="kity_path_79" fill="none" stroke="rgb(115, 191, 118)" stroke-width="1" d="M566.5000109598041,117.50000459700823A60,21,0,0,0,506.50001095980406,96.50000459700823"></path><path id="kity_path_95" fill="none" stroke="rgb(115, 191, 118)" stroke-width="1" d="M566.5000109598041,117.50000459700823A60,21,0,0,1,506.50001095980406,138.50000459700823"></path><path id="kity_path_111" fill="none" stroke="rgb(115, 191, 118)" stroke-width="1" d="M566.5000109598041,117.50000459700823A60,63,0,0,1,506.50001095980406,180.50000459700823"></path></g><g id="minder_node1"><path id="node_outline1" fill="rgb(115, 191, 118)" stroke="rgb(115, 191, 118)" d="M527.5000109598041,103.50000459700823h78a5,5,0,0,1,5,5v18a5,5,0,0,1,-5,5h-78a5,5,0,0,1,-5,-5v-18a5,5,0,0,1,5,-5z" stroke-width="3"></path><g id="node_text1" fill="white"><text id="kity_text_22" text-rendering="inherit" font-size="16" dy=".8em" y="107.10000456124544" x="534.5000109598041">格式控制</text></g></g><g id="kity_g_14" display="none"><path id="kity_path_15" fill="rgba(0, 153, 5, 0.5)" stroke="none" d="M243.50001095980406,156.50000459700823h261v8h-261z"></path><path id="kity_path_16" fill="none" stroke="rgb(0, 128, 4)" d="M243.50001095980406,156.50000459700823L504.50001095980406,156.50000459700823" stroke-width="1"></path></g><g id="minder_node2"><g id="node_expander1" style="cursor: pointer;" display="none"><path id="kity_path_36" fill="white" stroke="gray" d="M627.5000122562051,33.50000334531069A6,6,0,1,1,615.5000122562051,33.50000334531069A6,6,0,1,1,627.5000122562051,33.50000334531069"></path><path id="kity_path_37" fill="none" stroke="gray"></path></g><path id="node_outline2" fill="rgb(238, 246, 238)" stroke="rgb(115, 191, 118)" d="M631.5000126585364,20.500003345310688h256a3,3,0,0,1,3,3v20a3,3,0,0,1,-3,3h-256a3,3,0,0,1,-3,-3v-20a3,3,0,0,1,3,-3z" stroke-width="1"></path><g id="node_text2" fill="black"><text id="kity_text_33" text-rendering="inherit" font-size="14" dy=".8em" y="24.40000331401825" x="648.5000126585364">%u 以无符号的十进制形式输出整数</text></g></g><g id="minder_node3"><g id="node_expander2" style="cursor: pointer;" display="none"><path id="kity_path_44" fill="white" stroke="gray" d="M627.5000122562051,75.50000397115946A6,6,0,1,1,615.5000122562051,75.50000397115946A6,6,0,1,1,627.5000122562051,75.50000397115946"></path><path id="kity_path_45" fill="none" stroke="gray"></path></g><path id="node_outline3" fill="rgb(238, 246, 238)" stroke="rgb(115, 191, 118)" d="M631.5000126585364,62.50000397115946h268a3,3,0,0,1,3,3v20a3,3,0,0,1,-3,3h-268a3,3,0,0,1,-3,-3v-20a3,3,0,0,1,3,-3z" stroke-width="1"></path><g id="node_text3" fill="black"><text id="kity_text_41" text-rendering="inherit" font-size="14" dy=".8em" y="66.40000393986702" x="648.5000126585364">%c 以字符形式输出，只输出一个字符</text></g></g><g id="minder_node4"><g id="node_expander3" style="cursor: pointer;" display="none"><path id="kity_path_52" fill="white" stroke="gray" d="M627.5000122562051,117.50000459700823A6,6,0,1,1,615.5000122562051,117.50000459700823A6,6,0,1,1,627.5000122562051,117.50000459700823"></path><path id="kity_path_53" fill="none" stroke="gray"></path></g><path id="node_outline4" fill="rgb(238, 246, 238)" stroke="rgb(115, 191, 118)" d="M631.5000126585364,104.50000459700823h127a3,3,0,0,1,3,3v20a3,3,0,0,1,-3,3h-127a3,3,0,0,1,-3,-3v-20a3,3,0,0,1,3,-3z" stroke-width="1"></path><g id="node_text4" fill="black"><text id="kity_text_49" text-rendering="inherit" font-size="14" dy=".8em" y="108.40000456571579" x="648.5000126585364">%s 输出字符串</text></g></g><g id="minder_node5"><g id="node_expander4" style="cursor: pointer;" display="none"><path id="kity_path_60" fill="white" stroke="gray" d="M627.5000122562051,159.500005222857A6,6,0,1,1,615.5000122562051,159.500005222857A6,6,0,1,1,627.5000122562051,159.500005222857"></path><path id="kity_path_61" fill="none" stroke="gray"></path></g><path id="node_outline5" fill="rgb(238, 246, 238)" stroke="rgb(115, 191, 118)" d="M631.5000126585364,146.500005222857h359a3,3,0,0,1,3,3v20a3,3,0,0,1,-3,3h-359a3,3,0,0,1,-3,-3v-20a3,3,0,0,1,3,-3z" stroke-width="1"></path><g id="node_text5" fill="black"><text id="kity_text_57" text-rendering="inherit" font-size="14" dy=".8em" y="150.40000519156456" x="648.5000126585364">%f 以小数形式输出单、双精度数，隐含输出6位小数</text></g></g><g id="minder_node6"><g id="node_expander5" style="cursor: pointer;" display="none"><path id="kity_path_68" fill="white" stroke="gray" d="M627.5000122562051,201.50000584870577A6,6,0,1,1,615.5000122562051,201.50000584870577A6,6,0,1,1,627.5000122562051,201.50000584870577"></path><path id="kity_path_69" fill="none" stroke="gray"></path></g><path id="node_outline6" fill="rgb(238, 246, 238)" stroke="rgb(115, 191, 118)" d="M631.5000126585364,188.50000584870577h186a3,3,0,0,1,3,3v20a3,3,0,0,1,-3,3h-186a3,3,0,0,1,-3,-3v-20a3,3,0,0,1,3,-3z" stroke-width="1"></path><g id="node_text6" fill="black"><text id="kity_text_65" text-rendering="inherit" font-size="14" dy=".8em" y="192.40000581741333" x="648.5000126585364">%e 以指数形式输出实数</text></g></g><g id="minder_node7"><g id="node_expander6" style="cursor: pointer;" display="none"><path id="kity_path_76" fill="white" stroke="gray" d="M517.5000106170774,54.50000365823507A6,6,0,1,1,505.50001061707735,54.50000365823507A6,6,0,1,1,517.5000106170774,54.50000365823507"></path><path id="kity_path_77" fill="none" stroke="gray"></path></g><path id="node_outline7" fill="rgb(238, 246, 238)" stroke="rgb(115, 191, 118)" d="M244.50000689178705,41.50000365823507h257a3,3,0,0,1,3,3v20a3,3,0,0,1,-3,3h-257a3,3,0,0,1,-3,-3v-20a3,3,0,0,1,3,-3z" stroke-width="1"></path><g id="node_text7" fill="black"><text id="kity_text_73" text-rendering="inherit" font-size="14" dy=".8em" y="45.400003626942635" x="261.50000689178705">%d 以带符号的十进制形式输出整数</text></g></g><g id="minder_node8"><g id="node_expander7" style="cursor: pointer;" display="none"><path id="kity_path_84" fill="white" stroke="gray" d="M517.5000106170774,96.50000428408384A6,6,0,1,1,505.50001061707735,96.50000428408384A6,6,0,1,1,517.5000106170774,96.50000428408384"></path><path id="kity_path_85" fill="none" stroke="gray"></path></g><path id="node_outline8" fill="rgb(238, 246, 238)" stroke="rgb(115, 191, 118)" d="M244.50000689178705,83.50000428408384h257a3,3,0,0,1,3,3v20a3,3,0,0,1,-3,3h-257a3,3,0,0,1,-3,-3v-20a3,3,0,0,1,3,-3z" stroke-width="1"></path><g id="node_text8" fill="black"><text id="kity_text_81" text-rendering="inherit" font-size="14" dy=".8em" y="87.4000042527914" x="261.50000689178705">%o 以无符号的八进制形式输出整数</text></g></g><g id="minder_node10" opacity="1"><g id="node_expander9" style="cursor: pointer;" display="none"><path id="kity_path_100" fill="white" stroke="gray" d="M517.5000106170774,138.5000049099326A6,6,0,1,1,505.50001061707735,138.5000049099326A6,6,0,1,1,517.5000106170774,138.5000049099326"></path><path id="kity_path_101" fill="none" stroke="gray" d="M507.00001061707735,138.5000049099326L516.0000106170774,138.5000049099326"></path></g><path id="node_outline10" fill="rgb(238, 246, 238)" stroke="rgb(115, 191, 118)" d="M246.50000692158937,125.50000490993261h255a3,3,0,0,1,3,3v20a3,3,0,0,1,-3,3h-255a3,3,0,0,1,-3,-3v-20a3,3,0,0,1,3,-3z" stroke-width="1"></path><g id="node_text10" fill="black"><text id="kity_text_97" text-rendering="inherit" font-size="14" dy=".8em" y="129.40000487864017" x="263.5000069215894">%x 以无符号十六进制形式输出整数</text></g></g><g id="kity_g_12" display="none"><path id="kity_path_13" fill="none" stroke="rgb(66, 112, 68)" d="M246.50001095980406,125.50000459700823h255a3,3,0,0,1,3,3v20a3,3,0,0,1,-3,3h-255a3,3,0,0,1,-3,-3v-20a3,3,0,0,1,3,-3z" stroke-width="5"></path></g><g id="minder_node12"><g id="node_expander11" style="cursor: pointer;" display="none"><path id="kity_path_116" fill="white" stroke="gray" d="M517.5000106170774,180.50000553578138A6,6,0,1,1,505.50001061707735,180.50000553578138A6,6,0,1,1,517.5000106170774,180.50000553578138"></path><path id="kity_path_117" fill="none" stroke="gray"></path></g><path id="node_outline12" fill="rgb(238, 246, 238)" stroke="rgb(115, 191, 118)" d="M23.50000359863043,167.50000553578138h478a3,3,0,0,1,3,3v20a3,3,0,0,1,-3,3h-478a3,3,0,0,1,-3,-3v-20a3,3,0,0,1,3,-3z" stroke-width="1"></path><g id="node_text12" fill="black"><text id="kity_text_113" text-rendering="inherit" font-size="14" dy=".8em" y="171.40000550448895" x="40.50000359863043">%g 选用%f 或者 %e格式中输出宽度较短的一种格式，不输出无意义的0</text></g></g></g></g></svg>