<?xml version="1.0" standalone="yes"?>
<svg xmlns="http://www.w3.org/2000/svg" width="43" height="52">
<path style="fill:#ffffff; stroke:none;" d="M0 0L0 52L43 52L43 0L0 0z"/>
<path style="fill:#777777; stroke:none;" d="M28 8L29 9L28 8z"/>
<path style="fill:#323232; stroke:none;" d="M28.3333 9.66667C28.2778 9.72221 28.2222 10.7778 28.6667 10.3333C28.7222 10.2778 28.7778 9.22223 28.3333 9.66667z"/>
<path style="fill:#d7d7d7; stroke:none;" d="M24.6667 10.3333C24.2222 10.7778 25.2778 10.7222 25.3333 10.6667C25.7778 10.2222 24.7222 10.2778 24.6667 10.3333z"/>
<path style="fill:#979797; stroke:none;" d="M26 10L27 11L26 10z"/>
<path style="fill:#000000; stroke:none;" d="M27 10C23.9592 10.8996 21.1691 10.9919 18 11C18 15.5755 19.4226 22.0538 17 26C17.5977 27.1954 17.4661 26.9774 19 28C17.9644 29.1863 17.6614 29.6036 17 31L21 30C20.9417 27.2155 20.6479 24.7092 20 22L26 21C23.9479 20.1258 22.2528 20.0472 20 20C19.9645 17.8084 19.5953 16.1321 19 14C21.5368 13.5203 28.2208 13.2826 27 10z"/>
<path style="fill:#111111; stroke:none;" d="M17 11L17 22C18.4309 18.59 18.4309 14.41 17 11z"/>
<path style="fill:#a7a7a7; stroke:none;" d="M28 11L29 12L28 11z"/>
<path style="fill:#2d2d2d; stroke:none;" d="M26 12L27 13L26 12z"/>
<path style="fill:#c9c9c9; stroke:none;" d="M27 12L28 13L27 12z"/>
<path style="fill:#3a3a3a; stroke:none;" d="M21.6667 13.3333C21.2222 13.7778 22.2778 13.7222 22.3333 13.6667C22.7778 13.2222 21.7222 13.2778 21.6667 13.3333z"/>
<path style="fill:#666666; stroke:none;" d="M23 13L24 14L23 13z"/>
<path style="fill:#949494; stroke:none;" d="M24 13L25 14L24 13z"/>
<path style="fill:#d4d4d4; stroke:none;" d="M25 13L26 14L25 13z"/>
<path style="fill:#7f7f7f; stroke:none;" d="M19 14L20 15L19 14z"/>
<path style="fill:#323232; stroke:none;" d="M19.3333 15.6667C19.2778 15.7222 19.2222 16.7778 19.6667 16.3333C19.7222 16.2778 19.7778 15.2222 19.3333 15.6667z"/>
<path style="fill:#dedede; stroke:none;" d="M16 16L16 22C16.9511 19.7147 16.9511 18.2853 16 16z"/>
<path style="fill:#dbdbdb; stroke:none;" d="M20 17C21.2484 17.6848 21.5484 17.7488 23 18C21.7516 17.3152 21.4516 17.2512 20 17z"/>
<path style="fill:#626262; stroke:none;" d="M23 19C24.58 18.3164 24.7772 18.1952 26 17C23.9076 17.4057 23.9802 17.2167 23 19z"/>
<path style="fill:#3a3a3a; stroke:none;" d="M21.6667 18.3333C21.2222 18.7778 22.2778 18.7222 22.3333 18.6667C22.7778 18.2222 21.7222 18.2778 21.6667 18.3333z"/>
<path style="fill:#bababa; stroke:none;" d="M25.3333 18.6667C25.2778 18.7222 25.2222 19.7778 25.6667 19.3333C25.7222 19.2778 25.7778 18.2222 25.3333 18.6667z"/>
<path style="fill:#a7a7a7; stroke:none;" d="M20 19L21 20L20 19z"/>
<path style="fill:#dbdbdb; stroke:none;" d="M21 19C22.506 19.683 23.3148 19.8259 25 20C23.494 19.317 22.6852 19.1741 21 19z"/>
<path style="fill:#3a3a3a; stroke:none;" d="M23 21C24.2484 21.6848 24.5484 21.7488 26 22C24.7516 21.3152 24.4516 21.2512 23 21z"/>
<path style="fill:#4d4d4d; stroke:none;" d="M18 22L19 23L18 22z"/>
<path style="fill:#323232; stroke:none;" d="M20.3333 22.6667C20.2778 22.7222 20.2222 23.7778 20.6667 23.3333C20.7222 23.2778 20.7778 22.2222 20.3333 22.6667z"/>
<path style="fill:#c3c3c3; stroke:none;" d="M16.3333 23.6667C16.2778 23.7222 16.2222 24.7778 16.6667 24.3333C16.7222 24.2778 16.7778 23.2222 16.3333 23.6667z"/>
<path style="fill:#3a3a3a; stroke:none;" d="M17 23L17 25L19 25C18.4549 23.3648 18.6352 23.5451 17 23z"/>
<path style="fill:#727272; stroke:none;" d="M18 25L19 26L18 25z"/>
<path style="fill:#a7a7a7; stroke:none;" d="M21 25L21 28C21.6961 26.4463 21.6961 26.5537 21 25z"/>
<path style="fill:#dedede; stroke:none;" d="M16.3333 26.6667C16.2778 26.7222 16.2222 27.7778 16.6667 27.3333C16.7222 27.2778 16.7778 26.2222 16.3333 26.6667z"/>
<path style="fill:#888888; stroke:none;" d="M17 27L18 28L17 27z"/>
<path style="fill:#4d4d4d; stroke:none;" d="M18.3333 27.6667C18.2778 27.7222 18.2222 28.7778 18.6667 28.3333C18.7222 28.2778 18.7778 27.2222 18.3333 27.6667z"/>
<path style="fill:#c1c1c1; stroke:none;" d="M17 28L18 29L17 28z"/>
<path style="fill:#323232; stroke:none;" d="M21.3333 28.6667C21.2778 28.7222 21.2222 29.7778 21.6667 29.3333C21.7222 29.2778 21.7778 28.2222 21.3333 28.6667z"/>
<path style="fill:#c3c3c3; stroke:none;" d="M16.3333 29.6667C16.2778 29.7222 16.2222 30.7778 16.6667 30.3333C16.7222 30.2778 16.7778 29.2222 16.3333 29.6667z"/>
<path style="fill:#3a3a3a; stroke:none;" d="M18 30L19 31L18 30z"/>
<path style="fill:#666666; stroke:none;" d="M19 30L20 31L19 30z"/>
<path style="fill:#bababa; stroke:none;" d="M20.6667 30.3333C20.2222 30.7778 21.2778 30.7222 21.3333 30.6667C21.7778 30.2222 20.7222 30.2778 20.6667 30.3333z"/>
</svg>
