<svg id="kity_svg_6" xmlns="http://www.w3.org/2000/svg" xmlns:xlink="http://www.w3.org/1999/xlink" version="1.1" width="485" height="332" style="background: rgb(251, 251, 251); visibility: visible;" viewBox="0 0 485 332"><defs id="kity_defs_7"><linearGradient id="kity_linearGradient_17" x1="0" y1="0" x2="0" y2="1"><stop id="kity_stop_18" offset="0" stop-color="rgb(255, 255, 255)"></stop><stop id="kity_stop_19" offset="1" stop-color="rgb(204, 204, 204)"></stop></linearGradient><marker id="kity_marker_2" orient="auto" refX="6" refY="0" viewBox="-7 -7 14 14" markerWidth="7" markerHeight="7" markerUnits="userSpaceOnUse"><path id="kity_path_3" fill="rgb(123, 115, 191)" stroke="none" d="M6,0A6,6,0,1,1,-6,0A6,6,0,1,1,6,0"></path></marker></defs><g id="kity_g_8"><g id="minder1" text-rendering="optimize-speed"><g id="minder_connect_group1"><path id="kity_path_31" fill="none" stroke="rgb(123, 115, 191)" stroke-width="1" d="M65.00000662356615,180.50000362843275A60.5,119,0,0,1,125.50000662356615,61.50000362843275"></path><path id="kity_path_33" fill="none" stroke="rgb(123, 115, 191)" stroke-width="1" d="M224.50000662356615,61.50000362843275C232.50000662356615,61.50000362843275,232.50000662356615,29.50000362843275,240.50000662356615,29.50000362843275"></path><path id="kity_path_35" fill="none" stroke="rgb(123, 115, 191)" stroke-width="1" d="M224.50000662356615,61.50000362843275C232.50000662356615,61.50000362843275,232.50000662356615,55.50000362843275,240.50000662356615,55.50000362843275"></path><path id="kity_path_37" fill="none" stroke="rgb(123, 115, 191)" stroke-width="1" d="M224.50000662356615,61.50000362843275C232.50000662356615,61.50000362843275,232.50000662356615,94.50000362843275,240.50000662356615,94.50000362843275"></path><path id="kity_path_39" fill="none" stroke="rgb(123, 115, 191)" stroke-width="1" d="M334.50000662356615,94.50000362843275C342.50000662356615,94.50000362843275,342.50000662356615,81.50000362843275,350.50000662356615,81.50000362843275"></path><path id="kity_path_41" fill="none" stroke="rgb(123, 115, 191)" stroke-width="1" d="M334.50000662356615,94.50000362843275C342.50000662356615,94.50000362843275,342.50000662356615,107.50000362843275,350.50000662356615,107.50000362843275"></path><path id="kity_path_43" fill="none" stroke="rgb(123, 115, 191)" stroke-width="1" d="M65.00000662356615,180.50000362843275A60.5,0,0,0,1,125.50000662356615,180.50000362843275"></path><path id="kity_path_45" fill="none" stroke="rgb(123, 115, 191)" stroke-width="1" d="M224.50000662356615,180.50000362843275C232.50000662356615,180.50000362843275,232.50000662356615,141.50000362843275,240.50000662356615,141.50000362843275"></path><path id="kity_path_47" fill="none" stroke="rgb(123, 115, 191)" stroke-width="1" d="M224.50000662356615,180.50000362843275C232.50000662356615,180.50000362843275,232.50000662356615,167.50000362843275,240.50000662356615,167.50000362843275"></path><path id="kity_path_49" fill="none" stroke="rgb(123, 115, 191)" stroke-width="1" d="M224.50000662356615,180.50000362843275C232.50000662356615,180.50000362843275,232.50000662356615,193.50000362843275,240.50000662356615,193.50000362843275"></path><path id="kity_path_51" fill="none" stroke="rgb(123, 115, 191)" stroke-width="1" d="M224.50000662356615,180.50000362843275C232.50000662356615,180.50000362843275,232.50000662356615,219.50000362843275,240.50000662356615,219.50000362843275"></path><path id="kity_path_53" fill="none" stroke="rgb(123, 115, 191)" stroke-width="1" d="M65.00000662356615,180.50000362843275A60.5,77,0,0,0,125.50000662356615,257.50000362843275"></path><path id="kity_path_55" fill="none" stroke="rgb(123, 115, 191)" stroke-width="1" d="M65.00000662356615,180.50000362843275A60.5,119,0,0,0,125.50000662356615,299.50000362843275"></path></g><g id="minder_node1"><path id="node_outline1" fill="rgb(123, 115, 191)" stroke="rgb(123, 115, 191)" d="M25.50000662356615,166.50000362843275h79a5,5,0,0,1,5,5v18a5,5,0,0,1,-5,5h-79a5,5,0,0,1,-5,-5v-18a5,5,0,0,1,5,-5z" stroke-width="3"></path><g id="node_text1" fill="white"><text id="kity_text_22" text-rendering="inherit" font-size="16" dy=".8em" y="170.10000359266996" x="32.50000662356615">数据类型</text></g></g><g id="kity_g_12"><path id="kity_path_13" fill="none" stroke="none" d="M32.50000662356615,180.50000362843275h0v0h0z"></path></g><g id="kity_g_14"><path id="kity_path_15" fill="none" stroke="none" d="M32.50000662356615,180.50000362843275h0v0h0z"></path><path id="kity_path_16" fill="none" stroke="none"></path></g><g id="minder_node2"><g id="node_expander6" style="cursor: pointer;"><path id="kity_path_111" fill="white" stroke="gray" d="M126.50000793486834,61.50000185519457A6,6,0,1,1,114.50000793486834,61.50000185519457A6,6,0,1,1,126.50000793486834,61.50000185519457"></path><path id="kity_path_112" fill="none" stroke="gray" d="M116.00000793486834,61.50000185519457L125.00000793486834,61.50000185519457"></path></g><path id="node_outline7" fill="rgb(239, 238, 246)" stroke="rgb(123, 115, 191)" d="M130.5000083371997,48.50000185519457h91a3,3,0,0,1,3,3v20a3,3,0,0,1,-3,3h-91a3,3,0,0,1,-3,-3v-20a3,3,0,0,1,3,-3z" stroke-width="1"></path><g id="node_text7" fill="black"><text id="kity_text_67" text-rendering="inherit" font-size="14" dy=".8em" y="52.40000182390213" x="147.5000083371997">基本类型</text></g></g><g id="minder_node3"><g id="node_expander1" style="cursor: pointer;" display="none"><path id="kity_path_96" fill="white" stroke="gray" d="M240.5000096336007,29.50000137835741A6,6,0,1,1,228.5000096336007,29.50000137835741A6,6,0,1,1,240.5000096336007,29.50000137835741"></path><path id="kity_path_97" fill="none" stroke="gray"></path></g><path id="node_outline2" fill="none" stroke="none" d="M245.50000979751348,20.50000137835741h44a5,5,0,0,1,5,5v8a5,5,0,0,1,-5,5h-44a5,5,0,0,1,-5,-5v-8a5,5,0,0,1,5,-5z"></path><g id="node_text2" fill="black"><text id="kity_text_57" text-rendering="inherit" font-size="12" dy=".8em" y="21.70000135153532" x="245.50000979751348">整型 int</text></g></g><g id="minder_node4"><g id="node_expander2" style="cursor: pointer;" display="none"><path id="kity_path_99" fill="white" stroke="gray" d="M240.5000096336007,55.5000017657876A6,6,0,1,1,228.5000096336007,55.5000017657876A6,6,0,1,1,240.5000096336007,55.5000017657876"></path><path id="kity_path_100" fill="none" stroke="gray"></path></g><path id="node_outline3" fill="none" stroke="none" d="M245.50000979751348,46.5000017657876h64a5,5,0,0,1,5,5v8a5,5,0,0,1,-5,5h-64a5,5,0,0,1,-5,-5v-8a5,5,0,0,1,5,-5z"></path><g id="node_text3" fill="black"><text id="kity_text_59" text-rendering="inherit" font-size="12" dy=".8em" y="47.70000173896551" x="245.50000979751348">字符型 char</text></g></g><g id="minder_node5"><g id="node_expander5" style="cursor: pointer;"><path id="kity_path_108" fill="white" stroke="gray" d="M240.5000096336007,94.50000234693289A6,6,0,1,1,228.5000096336007,94.50000234693289A6,6,0,1,1,240.5000096336007,94.50000234693289"></path><path id="kity_path_109" fill="none" stroke="gray" d="M230.0000096336007,94.50000234693289L239.0000096336007,94.50000234693289"></path></g><path id="node_outline6" fill="none" stroke="none" d="M245.50000979751348,85.50000234693289h84a5,5,0,0,1,5,5v8a5,5,0,0,1,-5,5h-84a5,5,0,0,1,-5,-5v-8a5,5,0,0,1,5,-5z"></path><g id="node_text6" fill="black"><text id="kity_text_65" text-rendering="inherit" font-size="12" dy=".8em" y="86.7000023201108" x="245.50000979751348">实型（浮点型）</text></g></g><g id="minder_node6"><g id="node_expander3" style="cursor: pointer;" display="none"><path id="kity_path_102" fill="white" stroke="gray" d="M350.50001127272844,81.50000215321779A6,6,0,1,1,338.50001127272844,81.50000215321779A6,6,0,1,1,350.50001127272844,81.50000215321779"></path><path id="kity_path_103" fill="none" stroke="gray"></path></g><path id="node_outline4" fill="none" stroke="none" d="M355.5000114366412,72.50000215321779h90a5,5,0,0,1,5,5v8a5,5,0,0,1,-5,5h-90a5,5,0,0,1,-5,-5v-8a5,5,0,0,1,5,-5z"></path><g id="node_text4" fill="black"><text id="kity_text_61" text-rendering="inherit" font-size="12" dy=".8em" y="73.7000021263957" x="355.5000114366412">单精度实型 float</text></g></g><g id="minder_node7"><g id="node_expander4" style="cursor: pointer;" display="none"><path id="kity_path_105" fill="white" stroke="gray" d="M350.50001127272844,107.50000254064798A6,6,0,1,1,338.50001127272844,107.50000254064798A6,6,0,1,1,350.50001127272844,107.50000254064798"></path><path id="kity_path_106" fill="none" stroke="gray"></path></g><path id="node_outline5" fill="none" stroke="none" d="M355.5000114366412,98.50000254064798h105a5,5,0,0,1,5,5v8a5,5,0,0,1,-5,5h-105a5,5,0,0,1,-5,-5v-8a5,5,0,0,1,5,-5z"></path><g id="node_text5" fill="black"><text id="kity_text_63" text-rendering="inherit" font-size="12" dy=".8em" y="99.7000025138259" x="355.5000114366412">双精度实型 double</text></g></g><g id="minder_node8"><g id="node_expander11" style="cursor: pointer;"><path id="kity_path_126" fill="white" stroke="gray" d="M126.50000793486834,180.50000362843275A6,6,0,1,1,114.50000793486834,180.50000362843275A6,6,0,1,1,126.50000793486834,180.50000362843275"></path><path id="kity_path_127" fill="none" stroke="gray" d="M116.00000793486834,180.50000362843275L125.00000793486834,180.50000362843275"></path></g><path id="node_outline12" fill="rgb(239, 238, 246)" stroke="rgb(123, 115, 191)" d="M130.5000083371997,167.50000362843275h91a3,3,0,0,1,3,3v20a3,3,0,0,1,-3,3h-91a3,3,0,0,1,-3,-3v-20a3,3,0,0,1,3,-3z" stroke-width="1"></path><g id="node_text12" fill="black"><text id="kity_text_77" text-rendering="inherit" font-size="14" dy=".8em" y="171.4000035971403" x="147.5000083371997">构造类型</text></g></g><g id="minder_node9"><g id="node_expander7" style="cursor: pointer;" display="none"><path id="kity_path_114" fill="white" stroke="gray" d="M240.5000096336007,141.50000304728746A6,6,0,1,1,228.5000096336007,141.50000304728746A6,6,0,1,1,240.5000096336007,141.50000304728746"></path><path id="kity_path_115" fill="none" stroke="gray"></path></g><path id="node_outline8" fill="none" stroke="none" d="M245.50000979751348,132.50000304728746h50a5,5,0,0,1,5,5v8a5,5,0,0,1,-5,5h-50a5,5,0,0,1,-5,-5v-8a5,5,0,0,1,5,-5z"></path><g id="node_text8" fill="black"><text id="kity_text_69" text-rendering="inherit" font-size="12" dy=".8em" y="133.70000302046537" x="245.50000979751348">数组类型</text></g></g><g id="minder_node10"><g id="node_expander8" style="cursor: pointer;" display="none"><path id="kity_path_117" fill="white" stroke="gray" d="M240.5000096336007,167.50000343471766A6,6,0,1,1,228.5000096336007,167.50000343471766A6,6,0,1,1,240.5000096336007,167.50000343471766"></path><path id="kity_path_118" fill="none" stroke="gray"></path></g><path id="node_outline9" fill="none" stroke="none" d="M245.50000979751348,158.50000343471766h85a5,5,0,0,1,5,5v8a5,5,0,0,1,-5,5h-85a5,5,0,0,1,-5,-5v-8a5,5,0,0,1,5,-5z"></path><g id="node_text9" fill="black"><text id="kity_text_71" text-rendering="inherit" font-size="12" dy=".8em" y="159.70000340789557" x="245.50000979751348">结构类型 struct</text></g></g><g id="minder_node11"><g id="node_expander9" style="cursor: pointer;" display="none"><path id="kity_path_120" fill="white" stroke="gray" d="M240.5000096336007,193.50000382214785A6,6,0,1,1,228.5000096336007,193.50000382214785A6,6,0,1,1,240.5000096336007,193.50000382214785"></path><path id="kity_path_121" fill="none" stroke="gray"></path></g><path id="node_outline10" fill="none" stroke="none" d="M245.50000979751348,184.50000382214785h85a5,5,0,0,1,5,5v8a5,5,0,0,1,-5,5h-85a5,5,0,0,1,-5,-5v-8a5,5,0,0,1,5,-5z"></path><g id="node_text10" fill="black"><text id="kity_text_73" text-rendering="inherit" font-size="12" dy=".8em" y="185.70000379532576" x="245.50000979751348">联合类型 union</text></g></g><g id="minder_node12"><g id="node_expander10" style="cursor: pointer;" display="none"><path id="kity_path_123" fill="white" stroke="gray" d="M240.5000096336007,219.50000420957804A6,6,0,1,1,228.5000096336007,219.50000420957804A6,6,0,1,1,240.5000096336007,219.50000420957804"></path><path id="kity_path_124" fill="none" stroke="gray"></path></g><path id="node_outline11" fill="none" stroke="none" d="M245.50000979751348,210.50000420957804h85a5,5,0,0,1,5,5v8a5,5,0,0,1,-5,5h-85a5,5,0,0,1,-5,-5v-8a5,5,0,0,1,5,-5z" stroke-width="3"></path><g id="node_text11" fill="black"><text id="kity_text_75" text-rendering="inherit" font-size="12" dy=".8em" y="211.70000418275595" x="245.50000979751348">枚举类型 enum</text></g></g><g id="minder_node13"><g id="node_expander12" style="cursor: pointer;" display="none"><path id="kity_path_129" fill="white" stroke="gray" d="M126.50000793486834,257.50000477582216A6,6,0,1,1,114.50000793486834,257.50000477582216A6,6,0,1,1,126.50000793486834,257.50000477582216"></path><path id="kity_path_130" fill="none" stroke="gray"></path></g><path id="node_outline13" fill="rgb(239, 238, 246)" stroke="rgb(123, 115, 191)" d="M130.5000083371997,244.50000477582216h91a3,3,0,0,1,3,3v20a3,3,0,0,1,-3,3h-91a3,3,0,0,1,-3,-3v-20a3,3,0,0,1,3,-3z" stroke-width="1"></path><g id="node_text13" fill="black"><text id="kity_text_79" text-rendering="inherit" font-size="14" dy=".8em" y="248.40000474452972" x="147.5000083371997">指针类型</text></g></g><g id="minder_node14"><g id="node_expander13" style="cursor: pointer;" display="none"><path id="kity_path_132" fill="white" stroke="gray" d="M126.50000793486834,299.50000540167093A6,6,0,1,1,114.50000793486834,299.50000540167093A6,6,0,1,1,126.50000793486834,299.50000540167093"></path><path id="kity_path_133" fill="none" stroke="gray"></path></g><path id="node_outline14" fill="rgb(239, 238, 246)" stroke="rgb(123, 115, 191)" d="M130.5000083371997,286.50000540167093h193a3,3,0,0,1,3,3v20a3,3,0,0,1,-3,3h-193a3,3,0,0,1,-3,-3v-20a3,3,0,0,1,3,-3z" stroke-width="1"></path><g id="node_text14" fill="black"><text id="kity_text_81" text-rendering="inherit" font-size="14" dy=".8em" y="290.4000053703785" x="147.5000083371997">空类型 （无值类型）void</text></g></g></g></g></svg>