<svg id="kity_svg_6" xmlns="http://www.w3.org/2000/svg" xmlns:xlink="http://www.w3.org/1999/xlink" version="1.1" width="527" height="262" style="background: rgb(251, 251, 251); visibility: visible;" viewBox="0 0 527 262"><defs id="kity_defs_7"><linearGradient id="kity_linearGradient_17" x1="0" y1="0" x2="0" y2="1"><stop id="kity_stop_18" offset="0" stop-color="rgb(255, 255, 255)"></stop><stop id="kity_stop_19" offset="1" stop-color="rgb(204, 204, 204)"></stop></linearGradient><marker id="kity_marker_2" orient="auto" refX="6" refY="0" viewBox="-7 -7 14 14" markerWidth="7" markerHeight="7" markerUnits="userSpaceOnUse"><path id="kity_path_3" fill="rgb(123, 115, 191)" stroke="none" d="M6,0A6,6,0,1,1,-6,0A6,6,0,1,1,6,0"></path></marker></defs><g id="kity_g_8"><g id="minder1" text-rendering="optimize-speed"><g id="minder_connect_group1"><path id="kity_path_31" fill="none" stroke="rgb(123, 115, 191)" stroke-width="1" d="M65.00001143664122,145.50000470131636A60.5,84,0,0,1,125.50001143664122,61.50000470131636"></path><path id="kity_path_33" fill="none" stroke="rgb(123, 115, 191)" stroke-width="1" d="M224.50001143664122,61.50000470131636C232.50001143664122,61.50000470131636,232.50001143664122,29.500004701316357,240.50001143664122,29.500004701316357"></path><path id="kity_path_35" fill="none" stroke="rgb(123, 115, 191)" stroke-width="1" d="M224.50001143664122,61.50000470131636C232.50001143664122,61.50000470131636,232.50001143664122,55.50000470131636,240.50001143664122,55.50000470131636"></path><path id="kity_path_37" fill="none" stroke="rgb(123, 115, 191)" stroke-width="1" d="M224.50001143664122,61.50000470131636C232.50001143664122,61.50000470131636,232.50001143664122,94.50000470131636,240.50001143664122,94.50000470131636"></path><path id="kity_path_39" fill="none" stroke="rgb(123, 115, 191)" stroke-width="1" d="M334.5000114366412,94.50000470131636C342.5000114366412,94.50000470131636,342.5000114366412,81.50000470131636,350.5000114366412,81.50000470131636"></path><path id="kity_path_41" fill="none" stroke="rgb(123, 115, 191)" stroke-width="1" d="M334.5000114366412,94.50000470131636C342.5000114366412,94.50000470131636,342.5000114366412,107.50000470131636,350.5000114366412,107.50000470131636"></path><path id="kity_path_43" fill="none" stroke="rgb(123, 115, 191)" stroke-width="1" d="M65.00001143664122,145.50000470131636A60.5,0,0,0,1,125.50001143664122,145.50000470131636"></path><path id="kity_path_45" fill="none" stroke="none" display="none"></path><path id="kity_path_47" fill="none" stroke="none" display="none"></path><path id="kity_path_49" fill="none" stroke="none" display="none"></path><path id="kity_path_51" fill="none" stroke="none" display="none"></path><path id="kity_path_53" fill="none" stroke="rgb(123, 115, 191)" stroke-width="1" d="M65.00001143664122,145.50000470131636A60.5,42,0,0,0,125.50001143664122,187.50000470131636"></path><path id="kity_path_55" fill="none" stroke="rgb(123, 115, 191)" stroke-width="1" d="M65.00001143664122,145.50000470131636A60.5,84,0,0,0,125.50001143664122,229.50000470131636"></path></g><g id="minder_node1"><path id="node_outline1" fill="rgb(123, 115, 191)" stroke="rgb(61, 57, 96)" d="M25.500011436641216,131.50000470131636h79a5,5,0,0,1,5,5v18a5,5,0,0,1,-5,5h-79a5,5,0,0,1,-5,-5v-18a5,5,0,0,1,5,-5z" stroke-width="3"></path><g id="node_text1" fill="white"><text id="kity_text_22" text-rendering="inherit" font-size="16" dy=".8em" y="135.10000466555357" x="32.500011436641216">数据类型</text></g></g><g id="kity_g_12"><path id="kity_path_13" fill="none" stroke="none" d="M32.500011436641216,145.50000470131636h0v0h0z"></path></g><g id="kity_g_14"><path id="kity_path_15" fill="none" stroke="none" d="M32.500011436641216,145.50000470131636h0v0h0z"></path><path id="kity_path_16" fill="none" stroke="none"></path></g><g id="minder_node2"><g id="node_expander6" style="cursor: pointer;"><path id="kity_path_111" fill="white" stroke="gray" d="M126.5000127479434,61.500003449618816A6,6,0,1,1,114.5000127479434,61.500003449618816A6,6,0,1,1,126.5000127479434,61.500003449618816"></path><path id="kity_path_112" fill="none" stroke="gray" d="M116.0000127479434,61.500003449618816L125.0000127479434,61.500003449618816"></path></g><path id="node_outline7" fill="rgb(239, 238, 246)" stroke="rgb(123, 115, 191)" d="M130.50001315027475,48.500003449618816h91a3,3,0,0,1,3,3v20a3,3,0,0,1,-3,3h-91a3,3,0,0,1,-3,-3v-20a3,3,0,0,1,3,-3z" stroke-width="1"></path><g id="node_text7" fill="black"><text id="kity_text_67" text-rendering="inherit" font-size="14" dy=".8em" y="52.40000341832638" x="147.50001315027475">基本类型</text></g></g><g id="minder_node3"><g id="node_expander1" display="none" style="cursor: pointer;"><path id="kity_path_96" fill="white" stroke="gray" d="M240.50001444667578,29.500002972781658A6,6,0,1,1,228.50001444667578,29.500002972781658A6,6,0,1,1,240.50001444667578,29.500002972781658"></path><path id="kity_path_97" fill="none" stroke="gray"></path></g><path id="node_outline2" fill="none" stroke="none" d="M245.50001461058855,20.500002972781658h170a5,5,0,0,1,5,5v8a5,5,0,0,1,-5,5h-170a5,5,0,0,1,-5,-5v-8a5,5,0,0,1,5,-5z"></path><g id="node_text2" fill="black"><text id="kity_text_57" text-rendering="inherit" font-size="12" dy=".8em" y="21.700002945959568" x="245.50001461058855">整型 int （sizeof(int) 为2/4B）</text></g></g><g id="minder_node4"><g id="node_expander2" display="none" style="cursor: pointer;"><path id="kity_path_99" fill="white" stroke="gray" d="M240.50001444667578,55.50000336021185A6,6,0,1,1,228.50001444667578,55.50000336021185A6,6,0,1,1,240.50001444667578,55.50000336021185"></path><path id="kity_path_100" fill="none" stroke="gray"></path></g><path id="node_outline3" fill="none" stroke="none" d="M245.50001461058855,46.50000336021185h106a5,5,0,0,1,5,5v8a5,5,0,0,1,-5,5h-106a5,5,0,0,1,-5,-5v-8a5,5,0,0,1,5,-5z"></path><g id="node_text3" fill="black"><text id="kity_text_59" text-rendering="inherit" font-size="12" dy=".8em" y="47.70000333338976" x="245.50001461058855">字符型 char （1B）</text></g></g><g id="minder_node5"><g id="node_expander5" style="cursor: pointer;"><path id="kity_path_108" fill="white" stroke="gray" d="M240.50001444667578,94.50000394135714A6,6,0,1,1,228.50001444667578,94.50000394135714A6,6,0,1,1,240.50001444667578,94.50000394135714"></path><path id="kity_path_109" fill="none" stroke="gray" d="M230.00001444667578,94.50000394135714L239.00001444667578,94.50000394135714"></path></g><path id="node_outline6" fill="none" stroke="none" d="M245.50001461058855,85.50000394135714h84a5,5,0,0,1,5,5v8a5,5,0,0,1,-5,5h-84a5,5,0,0,1,-5,-5v-8a5,5,0,0,1,5,-5z"></path><g id="node_text6" fill="black"><text id="kity_text_65" text-rendering="inherit" font-size="12" dy=".8em" y="86.70000391453505" x="245.50001461058855">实型（浮点型）</text></g></g><g id="minder_node6"><g id="node_expander3" display="none" style="cursor: pointer;"><path id="kity_path_102" fill="white" stroke="gray" d="M350.5000160858035,81.50000374764204A6,6,0,1,1,338.5000160858035,81.50000374764204A6,6,0,1,1,350.5000160858035,81.50000374764204"></path><path id="kity_path_103" fill="none" stroke="gray"></path></g><path id="node_outline4" fill="none" stroke="none" d="M355.5000162497163,72.50000374764204h132a5,5,0,0,1,5,5v8a5,5,0,0,1,-5,5h-132a5,5,0,0,1,-5,-5v-8a5,5,0,0,1,5,-5z"></path><g id="node_text4" fill="black"><text id="kity_text_61" text-rendering="inherit" font-size="12" dy=".8em" y="73.70000372081995" x="355.5000162497163">单精度实型 float （4B）</text></g></g><g id="minder_node7"><g id="node_expander4" display="none" style="cursor: pointer;"><path id="kity_path_105" fill="white" stroke="gray" d="M350.5000160858035,107.50000413507223A6,6,0,1,1,338.5000160858035,107.50000413507223A6,6,0,1,1,350.5000160858035,107.50000413507223"></path><path id="kity_path_106" fill="none" stroke="gray"></path></g><path id="node_outline5" fill="none" stroke="none" d="M355.5000162497163,98.50000413507223h147a5,5,0,0,1,5,5v8a5,5,0,0,1,-5,5h-147a5,5,0,0,1,-5,-5v-8a5,5,0,0,1,5,-5z"></path><g id="node_text5" fill="black"><text id="kity_text_63" text-rendering="inherit" font-size="12" dy=".8em" y="99.70000410825014" x="355.5000162497163">双精度实型 double （8B）</text></g></g><g id="minder_node8"><g id="node_expander11" style="cursor: pointer;"><path id="kity_path_126" fill="white" stroke="gray" d="M126.5000127479434,145.50000470131636A6,6,0,1,1,114.5000127479434,145.50000470131636A6,6,0,1,1,126.5000127479434,145.50000470131636"></path><path id="kity_path_127" fill="none" stroke="gray" d="M116.0000127479434,145.50000470131636L125.0000127479434,145.50000470131636M120.5000127479434,141.00000470131636L120.5000127479434,150.00000470131636"></path></g><path id="node_outline12" fill="rgb(239, 238, 246)" stroke="rgb(123, 115, 191)" d="M130.50001315027475,132.50000470131636h91a3,3,0,0,1,3,3v20a3,3,0,0,1,-3,3h-91a3,3,0,0,1,-3,-3v-20a3,3,0,0,1,3,-3z" stroke-width="1"></path><g id="node_text12" fill="black"><text id="kity_text_77" text-rendering="inherit" font-size="14" dy=".8em" y="136.40000467002392" x="147.50001315027475">构造类型</text></g></g><g id="minder_node9" display="none"><g id="node_expander7" display="none" style="cursor: pointer;"><path id="kity_path_114" fill="white" stroke="gray" d="M240.50001444667578,121.50000434368849A6,6,0,1,1,228.50001444667578,121.50000434368849A6,6,0,1,1,240.50001444667578,121.50000434368849"></path><path id="kity_path_115" fill="none" stroke="gray"></path></g><path id="node_outline8" fill="none" stroke="none" d="M240.50001453608274,112.50000434368849h50a5,5,0,0,1,5,5v8a5,5,0,0,1,-5,5h-50a5,5,0,0,1,-5,-5v-8a5,5,0,0,1,5,-5z"></path><g id="node_text8" fill="black"><text id="kity_text_69" text-rendering="inherit" font-size="12" dy=".8em" y="113.7000043168664" x="240.50001453608274">数组类型</text></g></g><g id="minder_node10" display="none"><g id="node_expander8" display="none" style="cursor: pointer;"><path id="kity_path_117" fill="white" stroke="gray" d="M240.50001444667578,129.50000446289778A6,6,0,1,1,228.50001444667578,129.50000446289778A6,6,0,1,1,240.50001444667578,129.50000446289778"></path><path id="kity_path_118" fill="none" stroke="gray"></path></g><path id="node_outline9" fill="none" stroke="none" d="M240.50001453608274,120.50000446289778h85a5,5,0,0,1,5,5v8a5,5,0,0,1,-5,5h-85a5,5,0,0,1,-5,-5v-8a5,5,0,0,1,5,-5z"></path><g id="node_text9" fill="black"><text id="kity_text_71" text-rendering="inherit" font-size="12" dy=".8em" y="121.70000443607569" x="240.50001453608274">结构类型 struct</text></g></g><g id="minder_node11" display="none"><g id="node_expander9" display="none" style="cursor: pointer;"><path id="kity_path_120" fill="white" stroke="gray" d="M240.50001444667578,137.50000458210707A6,6,0,1,1,228.50001444667578,137.50000458210707A6,6,0,1,1,240.50001444667578,137.50000458210707"></path><path id="kity_path_121" fill="none" stroke="gray"></path></g><path id="node_outline10" fill="none" stroke="none" d="M240.50001453608274,128.50000458210707h85a5,5,0,0,1,5,5v8a5,5,0,0,1,-5,5h-85a5,5,0,0,1,-5,-5v-8a5,5,0,0,1,5,-5z"></path><g id="node_text10" fill="black"><text id="kity_text_73" text-rendering="inherit" font-size="12" dy=".8em" y="129.70000455528498" x="240.50001453608274">联合类型 union</text></g></g><g id="minder_node12" display="none"><g id="node_expander10" display="none" style="cursor: pointer;"><path id="kity_path_123" fill="white" stroke="gray" d="M240.50001444667578,145.50000470131636A6,6,0,1,1,228.50001444667578,145.50000470131636A6,6,0,1,1,240.50001444667578,145.50000470131636"></path><path id="kity_path_124" fill="none" stroke="gray"></path></g><path id="node_outline11" fill="none" stroke="none" d="M240.50001453608274,136.50000470131636h85a5,5,0,0,1,5,5v8a5,5,0,0,1,-5,5h-85a5,5,0,0,1,-5,-5v-8a5,5,0,0,1,5,-5z"></path><g id="node_text11" fill="black"><text id="kity_text_75" text-rendering="inherit" font-size="12" dy=".8em" y="137.70000467449427" x="240.50001453608274">枚举类型 enum</text></g></g><g id="minder_node13"><g id="node_expander12" display="none" style="cursor: pointer;"><path id="kity_path_129" fill="white" stroke="gray" d="M126.5000127479434,187.50000532716513A6,6,0,1,1,114.5000127479434,187.50000532716513A6,6,0,1,1,126.5000127479434,187.50000532716513"></path><path id="kity_path_130" fill="none" stroke="gray"></path></g><path id="node_outline13" fill="rgb(239, 238, 246)" stroke="rgb(123, 115, 191)" d="M130.50001315027475,174.50000532716513h91a3,3,0,0,1,3,3v20a3,3,0,0,1,-3,3h-91a3,3,0,0,1,-3,-3v-20a3,3,0,0,1,3,-3z" stroke-width="1"></path><g id="node_text13" fill="black"><text id="kity_text_79" text-rendering="inherit" font-size="14" dy=".8em" y="178.4000052958727" x="147.50001315027475">指针类型</text></g></g><g id="minder_node14"><g id="node_expander13" display="none" style="cursor: pointer;"><path id="kity_path_132" fill="white" stroke="gray" d="M126.5000127479434,229.5000059530139A6,6,0,1,1,114.5000127479434,229.5000059530139A6,6,0,1,1,126.5000127479434,229.5000059530139"></path><path id="kity_path_133" fill="none" stroke="gray"></path></g><path id="node_outline14" fill="rgb(239, 238, 246)" stroke="rgb(123, 115, 191)" d="M130.50001315027475,216.5000059530139h193a3,3,0,0,1,3,3v20a3,3,0,0,1,-3,3h-193a3,3,0,0,1,-3,-3v-20a3,3,0,0,1,3,-3z" stroke-width="1"></path><g id="node_text14" fill="black"><text id="kity_text_81" text-rendering="inherit" font-size="14" dy=".8em" y="220.40000592172146" x="147.50001315027475">空类型 （无值类型）void</text></g></g></g></g></svg>